<svg xmlns="http://www.w3.org/2000/svg" viewBox="0 0 1270.44 382.85"><defs><style>.cls-1{font-size:214.28px;fill:#f7931e;}.cls-1,.cls-3{font-family:AlbertusMTStd, Albertus MT Std;}.cls-2{letter-spacing:-0.06em;}.cls-3{font-size:74.28px;}.cls-3,.cls-9{fill:#fff;}.cls-4{letter-spacing:-0.05em;}.cls-5{letter-spacing:-0.04em;}.cls-6{letter-spacing:-0.02em;}.cls-7{letter-spacing:0em;}.cls-8{fill:none;}.cls-9{fill-rule:evenodd;}</style></defs><title>sb-logo-blackout</title><g id="Layer_2" data-name="Layer 2"><g id="Layer_1-2" data-name="Layer 1"><text class="cls-1" transform="translate(0 177.85)">Second B<tspan class="cls-2" x="814.67" y="0">r</tspan><tspan x="888.81" y="0">eath</tspan></text><text class="cls-3" transform="translate(0.74 268.61)"><tspan class="cls-4">T</tspan><tspan x="42.71" y="0">he Uno</tspan><tspan class="cls-5" x="277.97" y="0">f</tspan><tspan x="298.99" y="0">ficial Exalted Cha</tspan><tspan class="cls-6" x="840.43" y="0">r</tspan><tspan class="cls-7" x="869.1" y="0">acter Builder</tspan></text></g><g id="Layer_3" data-name="Layer 3"><path class="cls-8" d="M1267.08,342.13q-155.74-24.7-313-37.49c-6.54-.61-13.09-1-19.64-1.52l-19.66-1.41-19.66-1.41c-3.27-.22-6.55-.49-9.83-.68l-9.83-.57-39.35-2.25c-3.28-.18-6.56-.4-9.84-.54l-9.84-.43L796.7,295c-26.25-1.3-52.52-1.88-78.78-2.7-13.14-.3-26.27-.45-39.41-.69l-19.7-.3-19.71-.07-19.71-.07c-6.56,0-13.13-.06-19.7,0l-39.42.35c-26.27.5-52.54,1-78.8,1.93q-78.8,2.66-157.47,8.39T166.93,316.92c-26.13,3.14-52.24,6.52-78.31,10.4q-19.56,2.9-39.12,6.11c-6.52,1.12-13,2.19-19.57,3.38-3.26.58-6.53,1.16-9.81,1.78l-4.93.93-5.06,1,8.31,40.38L23,380l4.7-.89c3.14-.59,6.31-1.16,9.48-1.72,6.33-1.16,12.72-2.2,19.08-3.29q19.14-3.15,38.38-6c25.65-3.82,51.4-7.15,77.18-10.25Q249.21,348.67,327,343t155.81-8.3c26-1,52-1.41,78-1.91l39-.35c6.5-.09,13-.06,19.51,0l19.51.07,19.51.07,19.51.3c13,.23,26,.38,39,.68,26,.81,52,1.39,78,2.67l19.5.84,9.74.43c3.25.13,6.5.36,9.74.53l39,2.24,9.74.55c3.25.19,6.49.46,9.73.68l19.46,1.4,19.47,1.4c6.48.47,13,.89,19.45,1.49q155.55,12.79,309.84,37.12Z"/><path class="cls-9" d="M33,359.7a7.41,7.41,0,0,0,3.35-.48C35.2,359.42,34.09,359.21,33,359.7Z"/><path class="cls-9" d="M36,358.33c1.12-.28,2.22,0,3.35-.47C38.22,357.94,37.11,357.72,36,358.33Z"/><path class="cls-9" d="M44.86,358.44c1.2,0,1.23-.28,3-.65a8.71,8.71,0,0,0-1.84,0C45.27,358.09,45.65,358.17,44.86,358.44Z"/><path class="cls-9" d="M78.74,360.72l1.47.13c.76-.42,1.49-.31,2.25-.66A7.49,7.49,0,0,0,78.74,360.72Z"/><path class="cls-9" d="M42.31,357.38c-.57.35,1.93.23,2.6-.15,0-.33-.89,0-1.85-.14C43,357.24,42.83,357.39,42.31,357.38Z"/><path class="cls-9" d="M83.94,360.15a4,4,0,0,1,2.2.2c.62-.37.29-.61-.69-.76Z"/><path class="cls-9" d="M64.58,356.17c-.47.38,2.18.1,3-.45C66.58,355.47,65.56,356.34,64.58,356.17Z"/><path class="cls-9" d="M98.06,358.9c.56,0,1.61-.32,1.11-.06.73.1,1.51-.47,2.26-.65a10,10,0,0,0,3.32.16c0-.69,2.54-1,4.54-1.46a11.82,11.82,0,0,1-3.34.19c0,.47-.66.36-2.28.81-.09-.1-.2-.2-.72-.24a7.61,7.61,0,0,1-3,.4C99,358.38,98.08,358.7,98.06,358.9Z"/><path class="cls-9" d="M69.41,355.7l1.48.13a1.32,1.32,0,0,1,1.13-.42C72.6,355.08,70.1,355.23,69.41,355.7Z"/><path class="cls-9" d="M74,352.64a11.3,11.3,0,0,0,3.39-.74C76.25,352,74.11,352.2,74,352.64Z"/><path class="cls-9" d="M129.26,356.77c1.07.13,3-.19,3-.54A17.69,17.69,0,0,0,129.26,356.77Z"/><path class="cls-9" d="M85.24,351.21c1.24-.13,2.46.13,3.74-.52A13.88,13.88,0,0,0,85.24,351.21Z"/><path class="cls-9" d="M124.1,351.68c1.62-.05,1.44-.41,3.41-.85a7.33,7.33,0,0,1-1.48,0C125.44,351.48,123.57,351.26,124.1,351.68Z"/><path class="cls-9" d="M98,348.28c.48-.35-2.19,0-2.94-.3C94,348.52,97,348.26,98,348.28Z"/><path class="cls-9" d="M111.11,347.14a20.13,20.13,0,0,0,3.76-.64c-1.49.05-3,.25-4.47.21C109.09,347.05,112.4,346.8,111.11,347.14Z"/><path class="cls-9" d="M153,351.66c-.49.58,2.2-.17,3-.18C156.46,351,153.77,351.63,153,351.66Z"/><path class="cls-9" d="M155.77,349.54c-.85-.23-1.76.4-2.6,0-.69.31-.7.54-.06.69C154.19,349.72,155.77,350,155.77,349.54Z"/><path class="cls-9" d="M177,352.18a12.06,12.06,0,0,0,4.11-.36A30.29,30.29,0,0,0,177,352.18Z"/><path class="cls-9" d="M102.09,343.45c.73.21,1.5-.1,2.23,0,1.36-.41.43-.51-.7-.59Z"/><path class="cls-9" d="M112.06,344.28a10.27,10.27,0,0,0,3,0C115.5,343.93,112.88,343.78,112.06,344.28Z"/><path class="cls-9" d="M110,342.66a1.5,1.5,0,0,0,.75-.09c3,.06,6-.75,9-.78,1.67-.5.63-.65,1.56-1.05-1.68-.05-1.35.46-2.65.58-1.39-.05-.42-.37-1.84-.2-.08.48-2.23.62-3.42,1a17.4,17.4,0,0,0-2.6-.1C109.05,342.43,111.64,342.28,110,342.66Z"/><path class="cls-9" d="M173.68,348.26c-.77,0,1.46-.47,1.9-.46.82-.53-1.44.22-1.85-.06-1.54.36-.61.46-1.18.72,1,.07,2,0,3,0C176.56,348.1,174.68,348.14,173.68,348.26Z"/><path class="cls-9" d="M84.2,338.41a8.07,8.07,0,0,0,3.75-.36A15.48,15.48,0,0,0,84.2,338.41Z"/><path class="cls-9" d="M83.87,337.85c-.59.39,1.94,0,2.62-.29C85.64,337.21,84.74,337.86,83.87,337.85Z"/><path class="cls-9" d="M89.09,337.82c1-.34.6-.48,1.17-.76-.63,0-1.26.19-1.88.17C87.88,337.52,88.35,337.69,89.09,337.82Z"/><path class="cls-9" d="M178.19,347.61c-.15.54,3-.16,4.08,0C183.33,346.92,179.5,347.42,178.19,347.61Z"/><path class="cls-9" d="M75.52,334.15a20,20,0,0,0,4.94-1.3A31.93,31.93,0,0,0,75.52,334.15Z"/><path class="cls-9" d="M192.37,346.62c0-.29-1.84-.45-3,0C189.37,346.85,191.23,347.13,192.37,346.62Z"/><path class="cls-9" d="M111.84,337.29c1.22.18,5.49-.63,3.42-.86C114.1,337,113,337,111.84,337.29Z"/><path class="cls-9" d="M137.7,339.57c.24.43,3.71,0,5.26-.61-.76,0-.39-.18,0-.34C141.27,338.41,139.44,339.63,137.7,339.57Z"/><path class="cls-9" d="M95.68,334.11a10.75,10.75,0,0,0,4.51-.43C98.67,334,97.21,333.59,95.68,334.11Z"/><path class="cls-9" d="M199.46,346.19c.57,0,1.12-.06.74.1,2.41-.62,4.73-.31,7.15-1C203.83,345.73,202.2,344.9,199.46,346.19Z"/><path class="cls-9" d="M128.36,335.57c.85.27,1.77-.35,2.66-.59a6.85,6.85,0,0,1-1.5,0C129.47,335.14,129.05,335.34,128.36,335.57Z"/><path class="cls-9" d="M208.1,345.27c-.91.4,1.14,0,1.46.2-.67-.46,1.31-.17,2.67-.69-.82-.37-1.79.54-2.61.17A3.92,3.92,0,0,1,208.1,345.27Z"/><path class="cls-9" d="M212.58,345c2.4-.1,2.86.52,4.83,0-2.3-.07.69-.64-1.42-.72C215.89,344.86,213.78,344.58,212.58,345Z"/><path class="cls-9" d="M129.79,331.71c1.75-.12,4.24-.7,2.69-.93A8.68,8.68,0,0,0,129.79,331.71Z"/><path class="cls-9" d="M225.32,343.79c1.46.26,3-.2,4.49-.22.74.13-.19.41-1.2.7,2.61,0,2.53-.84,6.06-1-.71-.3-.79-.13-2.19-.32-1.68.47.57,0,1.08.33C230.8,343.52,228.11,343.21,225.32,343.79Z"/><path class="cls-9" d="M188.28,335.6a9.81,9.81,0,0,0,4.18-.86C190.82,334.85,189,335.07,188.28,335.6Z"/><path class="cls-9" d="M164.43,332.07c1.37-.12.43.07,1.47.18.67-.27.28-.42.43-.64A6.67,6.67,0,0,0,164.43,332.07Z"/><path class="cls-9" d="M199,329.51a18.51,18.51,0,0,0,4.93-.73C202.32,329.09,199.38,329,199,329.51Z"/><path class="cls-9" d="M176.22,321.85a22.88,22.88,0,0,0,2.62,0c1.32-.31-2-.12-.69-.43A6.3,6.3,0,0,0,176.22,321.85Z"/><path class="cls-9" d="M157,319.29a13.47,13.47,0,0,0,4.57-.84C160.12,318.68,157.34,318.89,157,319.29Z"/><path class="cls-9" d="M237.86,328.46l1.46.21c.12-.14.25-.27.77-.23C240.8,328.11,238.45,328.1,237.86,328.46Z"/><path class="cls-9" d="M185.48,319c1.61.12,3.28-.41,4.87-.08.69-.26-.22-.37-.32-.56,1.07-.27,2.67-.11,2.68-.52-.87,0-1.8.44-2.65.17C189.33,318.66,187.24,318.4,185.48,319Z"/><path class="cls-9" d="M245.25,325.86a13.07,13.07,0,0,0,1.87-.08c1.23-.34.06-.61-1.06-.51C244.36,325.59,247,325.54,245.25,325.86Z"/><path class="cls-9" d="M207.44,316.48c.1.42,5.05.06,5.3-.51A24.59,24.59,0,0,1,207.44,316.48Z"/><path class="cls-9" d="M204.36,313.8a8.39,8.39,0,0,0,3.81-.54A29.85,29.85,0,0,0,204.36,313.8Z"/><path class="cls-9" d="M226.19,316.08a13.53,13.53,0,0,0,3.78-.32A14.84,14.84,0,0,0,226.19,316.08Z"/><path class="cls-9" d="M239.73,315.59c.86.08,1.77-.22,2.63-.14.42-.18-.59-.23-1.08-.33Z"/><path class="cls-9" d="M245.43,314.84c1,.22,2-.18,3-.09C248.92,314.52,246.27,314.35,245.43,314.84Z"/><path class="cls-9" d="M299.08,322.43c.39-.08.22-.12,0-.17a4.38,4.38,0,0,1,1.49.07c.91-.16.54-.63,1.94-.55,1.33-.4-2,0-.71-.29C300.64,321.61,297.07,322.17,299.08,322.43Z"/><path class="cls-9" d="M303.31,321.56a2.91,2.91,0,0,0,1.51-.1c.55.08,1.1.15.71.29a6.74,6.74,0,0,0,1.92-.38l-1.83-.31C304.82,321.43,304.1,321.27,303.31,321.56Z"/><path class="cls-9" d="M311.77,322.61a11.09,11.09,0,0,0,3-.37A5.71,5.71,0,0,0,311.77,322.61Z"/><path class="cls-9" d="M266.1,314.26c1.62,0,1.53-.62.84-.75C265,313.66,266.41,314,266.1,314.26Z"/><path class="cls-9" d="M263.2,313.46c2,0,4.76,0,5.7-.7C267,313.09,265.16,312.69,263.2,313.46Z"/><path class="cls-9" d="M268.75,314a31.25,31.25,0,0,0,3.8-.46c-1.25,0-2.51.19-3.75.11C268.46,313.76,269.26,313.81,268.75,314Z"/><path class="cls-9" d="M275,314.94c3.33-.43,4.09-.2,2-.92A3.75,3.75,0,0,0,275,314.94Z"/><path class="cls-9" d="M323.11,321.69a9.53,9.53,0,0,0,3.77-.25A13.43,13.43,0,0,0,323.11,321.69Z"/><path class="cls-9" d="M341.48,321.33c3.61-.68,6.67-.46,8.8-1.25-2.78.18-5.55.38-8.36.8-.36-.09.41-.24.81-.38C340.2,320.34,340,321,341.48,321.33Z"/><path class="cls-9" d="M297.8,312.39c2,.1.77-.71,1.95-.56C299.92,311.27,297.18,312.24,297.8,312.39Z"/><path class="cls-9" d="M299.72,312a9.06,9.06,0,0,0,3.44-.49A11.26,11.26,0,0,0,299.72,312Z"/><path class="cls-9" d="M359,319.68l1.45.26c.75-.18.38-.3,1.2-.49A15,15,0,0,0,359,319.68Z"/><path class="cls-9" d="M324.78,312.47c.58-.24-.35-.37,1.22-.68C324.22,311.82,322,312.61,324.78,312.47Z"/><path class="cls-9" d="M378.18,301.83a3.93,3.93,0,0,0,3.49-.59A24,24,0,0,0,378.18,301.83Z"/><path class="cls-9" d="M416.44,300.38c1.59.26,1.5-.49,3.43-.2.74.29-1.49.27-2,.49a6.3,6.3,0,0,0,3.48-.54c-1,0-1.37-.08-1.45-.3,1.71-.48,3.25.12,5-.42a6.52,6.52,0,0,1-2.61-.17,13.63,13.63,0,0,1-5.32.18C416.9,299.74,418.59,300,416.44,300.38Z"/><path class="cls-9" d="M430.88,299.72l1.46.29a9.93,9.93,0,0,0,2.36-.59c-1.32-.25-3.55.57-2.24-.09A1.87,1.87,0,0,0,430.88,299.72Z"/><path class="cls-9" d="M436.51,300c0-.23,1.34-.5,2.38-.76L437.8,299a2.91,2.91,0,0,1-1.16.12c-.07.33.36.21-1.2.47C436.13,299.69,435.72,299.84,436.51,300Z"/><path class="cls-9" d="M442.51,300.09c1.32-.37,2.53-.14,3.85-.46-1.6-.15-3.33.31-4.88-.1C440.71,299.94,442,299.74,442.51,300.09Z"/><path class="cls-9" d="M448.73,299c-1.14.23-1.57.45-.49.61a8.54,8.54,0,0,0,1.55-.23C449.77,299.28,449.39,299.15,448.73,299Z"/><path class="cls-9" d="M449.81,299.26c.71.11.3.27,1.07.38.76-.15.41-.38,1.18-.29.42-.16-.58-.27-1.06-.39Z"/><path class="cls-9" d="M452.22,298.49c-.26.19,2.63.62,3.73.22A18.56,18.56,0,0,0,452.22,298.49Z"/><path class="cls-9" d="M474.07,298.76a22,22,0,0,1,2.73-.48c-.83-.31-1.79.11-2.61-.2C473.4,298.32,472.58,298.57,474.07,298.76Z"/><path class="cls-9" d="M485.87,298.25a7.62,7.62,0,0,0,3-.07l-1.46-.31Z"/><path class="cls-9" d="M493.07,298.17c1.49.07,3,0,4.52.07,1.26-.23-2.3-.34-1-.57-.94-.07-.78.16-1.19.28C494.6,298.07,493.89,297.79,493.07,298.17Z"/><path class="cls-9" d="M498.17,297.12c.86.14,1.82-.27,2.67-.14-.13-.32-1.14-.34-2.58-.37C497.56,296.8,499.19,296.93,498.17,297.12Z"/><path class="cls-9" d="M506.65,298.21c2.37-.54,4.56-.07,6.83-.08,1.58-.55-2.7-.56-3.59-1-.43.49.14.52-2.41.71-1.58-.33-1.31-.6-3.3-.52C503.78,297.82,504.66,297.9,506.65,298.21Z"/><path class="cls-9" d="M507.24,297.09c1.63.09,3.31-.13,4.92,0A10.18,10.18,0,0,0,507.24,297.09Z"/><path class="cls-9" d="M515.3,296.58c.6.16,1.24.06,1.84.23,1.1-.26-.86-.5.53-.77a8.74,8.74,0,0,0-2.31.2C516.91,296.49,517,296.29,515.3,296.58Z"/><path class="cls-9" d="M526.32,296.38a9.36,9.36,0,0,0,1.84.24c-.27-.2.72-.41-.26-.6C527.72,296.34,527.36,296.13,526.32,296.38Z"/><path class="cls-9" d="M657.21,298.57a20.64,20.64,0,0,0,5.75-.13c-1.62-.19-3.21-.47-4.84-.53C657.51,298.13,657.58,298.35,657.21,298.57Z"/><path class="cls-9" d="M694.35,297.93c.81.37,1.79,0,2.64.16C697.62,297.86,695.11,297.59,694.35,297.93Z"/><path class="cls-9" d="M732.94,299.57c-.07.34,3.18.47,4.54.19C736,299.57,734.45,299.63,732.94,299.57Z"/><path class="cls-9" d="M751.48,300.41c1.85-.17,5.17-.05,5.83-.36C755.53,300,752.18,299.94,751.48,300.41Z"/><path class="cls-9" d="M788.82,301.32c1.34.27,2.78.15,4.14.31C793.13,301.37,790.08,301,788.82,301.32Z"/><path class="cls-9" d="M827.92,304.47c.17-.19,1.14-.32,1.3-.51a9,9,0,0,0-2.32,0C827.59,304.17,827.17,304.28,827.92,304.47Z"/><path class="cls-9" d="M952.68,342c2.93.5,6.17,0,9.09.54C960.46,341.81,955.52,342,952.68,342Z"/><path class="cls-9" d="M962.23,342.37a8,8,0,0,0,3.79.2A20.62,20.62,0,0,0,962.23,342.37Z"/><path class="cls-9" d="M899.19,307.56c.35-.11.37-.25-.25-.45,2.54.21,3.17.3,6.09.34a44.84,44.84,0,0,0-7.56-.63C898.84,307.13,898.35,307.29,899.19,307.56Z"/><path class="cls-9" d="M911,309.73c0-.26,1.81-.37.59-.72C910,308.89,909.83,309.37,911,309.73Z"/><path class="cls-9" d="M908,307.86c-.43.11.56.33,1,.51,1-.08,1.49-.21,1.66-.37C909.84,307.78,908.81,308.2,908,307.86Z"/><path class="cls-9" d="M998.57,313.91a5.67,5.67,0,0,0,2.77-.15,9,9,0,0,0-2.32-.06C999.35,313.82,998.8,313.85,998.57,313.91Z"/><path class="cls-9" d="M1004.57,313.39a3.86,3.86,0,0,0,2.42-.28C1005.37,312.94,1004.63,313.08,1004.57,313.39Z"/><path class="cls-9" d="M1011.2,314.59c3.21.57,6.56.68,9.86,1-.61-.47,1.41-.17,2.83-.28C1019.33,314.79,1016.22,315,1011.2,314.59Z"/><path class="cls-9" d="M1022.62,315.54a18,18,0,0,0,4.23.22A11,11,0,0,0,1022.62,315.54Z"/><path class="cls-9" d="M1028.36,315.93a37.36,37.36,0,0,0,4.53.52C1032.7,316.14,1030,315.68,1028.36,315.93Z"/><path class="cls-9" d="M1032.32,317a22,22,0,0,1,3.66.76c1.14-.24,1.9-.17,1-.74C1036.55,317.52,1033.86,316.85,1032.32,317Z"/><path class="cls-9" d="M1036.08,312.62c-.57.32,2.17.43,3,.34a9.24,9.24,0,0,0-1.81-.46C1036.53,312.54,1036.85,312.82,1036.08,312.62Z"/><path class="cls-9" d="M1052.81,317.68c-.4,0-.24.08,0,.16l.69.25c1.15-.28,5,.5,7.37.23-.47-.13-.53-.23-.3-.29-1.83,0-3.58-.2-5.44-.1-1.77-.62,1-.2,1-.57-.79-.37-1.93.31-2.72-.05C1052.72,317.34,1054.83,318.08,1052.81,317.68Z"/><path class="cls-9" d="M1042.93,313.22a42.91,42.91,0,0,0,7.31.4C1047.85,313.35,1045.39,313.26,1042.93,313.22Z"/><path class="cls-9" d="M1062.73,318.45c1.24.11,1.06.67,2.85.84-.56-.4-.17-.56,1.73-.49A21,21,0,0,0,1062.73,318.45Z"/><path class="cls-9" d="M1065.56,318.18a24.08,24.08,0,0,0,5.4.26A28.88,28.88,0,0,0,1065.56,318.18Z"/><path class="cls-9" d="M1082.55,320.19c.5-.08-.91-.4-.24-.46-2.51-.34-5.29.16-7.65-.64C1074.44,320,1080.19,319.58,1082.55,320.19Z"/><path class="cls-9" d="M1074,318.66c2.56.58,5.37.39,8.11.45C1079.58,318.49,1076.74,318.76,1074,318.66Z"/><path class="cls-9" d="M1080.49,318.13c-.36.41,2.75.3,3.82.32C1083.13,318.06,1081.7,318.45,1080.49,318.13Z"/><path class="cls-9" d="M1081.83,318.81a19.29,19.29,0,0,0,6.49.58C1086.06,319.5,1084.1,318.68,1081.83,318.81Z"/><path class="cls-9" d="M1092.56,320.8c-2.11-.67.65-.7,2.07-.34.92.46-1,.32-2.07.34.87.52,2.06.08,3,.55.91-.65,6.17-.83,8.56-.87.06-.6-5.25-.18-5.56.14-.11-.52-2.82-.46-1.68-.81-3,.15-5.54.48-9.72.8A15.19,15.19,0,0,0,1092.56,320.8Z"/><path class="cls-9" d="M1103,321.21c-.44.08.54.35,1,.55a27.08,27.08,0,0,1,3.13.06c.18-.12-.38-.33.51-.36-.72-.18-1.47-.28-2.2-.46C1104.36,321.09,1105,321.71,1103,321.21Z"/><path class="cls-9" d="M1107.33,322.44c1.16.11,3.86.23,2.08-.33C1107.92,322.12,1108.29,322.37,1107.33,322.44Z"/><path class="cls-9" d="M1109.93,321.75c-.82.31,1.69.25,2.14.62.45-.27,0-.34,1.68-.3C1112.58,321.66,1111.18,321.93,1109.93,321.75Z"/><path class="cls-9" d="M16.65,361.34c-.56-.09,1.15-.61-.36-.53-.62.27-1.24.31-1.86.61,3-.53-1.23,1.77,1.85.08a78.12,78.12,0,0,1,9.65-1.38c1.45-.63,1.94-.58,2.6-.37.31-.17-.48-.15,0-.35,1.41-.41.44.26,1.84.13.33-.47,1.1-.55,3-1.54a17.61,17.61,0,0,0-4.11,1.12c-1.1-.31-2.23.22-3.34.49-2.43-.36-6.14.73-7.43.63-1.66.67,1.89.29,2.59.13C19.61,361,18.14,360.63,16.65,361.34Z"/><path class="cls-9" d="M48.9,359.09a37.64,37.64,0,0,0,6-.94c-1.36,0-.43-.28-1.47-.29C52.69,358.69,50.6,358.54,48.9,359.09Z"/><path class="cls-9" d="M58.2,357.73c1.09-.16,1.48-.43.4-.49a4.4,4.4,0,0,1,1.49-.05c1.41-.41,1-.55,1.89-.89a45.3,45.3,0,0,0,6.72-1.18c2.7.47,5.48-.68,8.2-.83-.19.71-4.19.85-4.53,1.5,4.16-.86,6.63-.61,11.22-1.94a5,5,0,0,0,3.73-.36c1,.24.45.74-1.18,1.11.6.16,1.25-.22,1.86-.17-.72-.19,1.69-.82,0-.87,2.59.08,5.25-.9,7.86-1.14-3.44.82-5.64,1.49-6.41,1.62,1.09.48,5.49-1,7.88-1.48.15.43,2.74-.05,4.09-.29.33-.15-.47-.16,0-.34s.76-.1,1.14-.24c.12.13-.5.35.34.38,3.11-.4,6.25-1.19,9.37-1.66.23,0,0,.17.36.21-3.34.59-4.44,1.07-7.53,1.67,2.6,0,5.23-.67,7.84-.77.9-.42-1.15.05-1.48-.16a11.45,11.45,0,0,1,1.89-.49c1.72,0,.46.63,2.2.41.73-.23.35-.33,1.15-.57a3.5,3.5,0,0,0-1.12.23c-.86-.09-.62-.8-1.48-.16-2.19-.19.46-.73,1.92-.84-1.89.5,2.13,0,.7.6,1,0,2-.71,3-.72,1.08.19-1.62.76-2.67.93-.94.35.89.34,0,.69,1.35.05,2.76-.52,4.11-.43-.09.39-1.51.46-2.3,1,1.33.32,2.76-.52,4.09-.26.7-.4-1.68.06-2.2-.24a29.61,29.61,0,0,1,3.36-.33c-1.65-.14-.75-.45-.3-.9.37-.1.75-.1,1.13-.23,1.66,0-1,.46.7.43,1.67-.77,10.4-1.45,9.69-.7,1-.43,2.29-.41,2.29-.78,2,0,.63.44,1.81.56-1.87.14-3.77.69-5.62.75,1.09.23,5.45-.22,7.84-.66.72.09-.58.41.7.43a14.29,14.29,0,0,1,5.62-.73c.24-.47,1.82-.6.83-.95,1.08.24,2.53-.49,4.47-.35-1.05-.5,3.09-.62,3.06-1,2.69-.05-1.61.7.3.74a8.86,8.86,0,0,1,3.39-.65c.13.18-.28.43-.42.64-3.87.68-7.57.78-10.51,1.56.84.23,1.76-.39,2.6,0,5-1.54,9.68-.62,14.62-1.91,4.68.36,13.46-1.49,15.65-.81,1.5-.09,3-.25,4.48-.31.85-.74,3.39-.54,5.28-.9.13.13-.5.34.33.39.18-.46,2.86-.74,2.64-.34,4.18-.92,8.22-.56,12.38-1.28-1.17-.13.93-.48,1.55-.66.67.13-1.59.55-1.19.71,3.46.09,7-.81,10.52-1.18-.14.65,4.06.28,4.85-.22.71.25,1.48,0,2.21.14,2-1.11,9.55-.44,13.94-1.63,3.22.66,9.45-1.44,12-.7a26.49,26.49,0,0,0-3.38.38c.81.4,4.61-.6,7.51-.65,1.18,0,5.41.14,5.62-.38.77-.26,1.47.15,2.21.17,2.67-.54,5.26-.44,7.94-1,3.07.09,9.73-.53,14.61-.87,7.9-.52,15.81-.92,23.72-1.35l23.74-1.34,47.54-2.35c31.71-1.43,63.46-2.76,95.25-3.73,63.58-2,127.3-3,191-2.55,1.07.22.1.39-.51.58a133.74,133.74,0,0,0-14.32-.24c-4.8.09-9.61.2-14.33-.09a7,7,0,0,1-2.73.39c-.36-.17.65-.07,1.19-.24-1.47-.22-3.12.4-4.52-.07-1.18.21.15.46-.91.67-4-.86-10.42-.64-15.8-.23a78.7,78.7,0,0,0-12.84.06c-.48-.09-.55-.17-.33-.26-6.74.53-16-.05-20.47.64-1-.22-.06-.31-1.43-.34-.41.11.32.23.68.34-8.45-.51-15.36.58-24.1,0-.85.57-5.09.12-7.17.15-3.49.06-6,.68-7.56.25a33.44,33.44,0,0,1-9,.09c-1.71.19.86.33-.85.52-.38.2-2.33-.24-1.43-.32-2.11.47-4,.1-6.1.4-.75-.11-.37-.22.07-.34-2.73.49-5.3.22-8,.5-.2-.63-.2-.06-2.2-.31,0,.22-1,.43-2,.44,0-.14-.4-.28-1.05-.41-1.86.65-5.44-.11-9.12.68-.64-.13-.65-.27-.31-.42-4.43.32-14.75.43-15.9.86-2.27.16-4.43-.35-6.8.32-2-.35-5.77-.48-6.75,0-3.53,0-7,.08-10.43.18l-10.27.44c-6.84.31-13.75.62-21.08.75-.73.14-.33.24-.81.37-1.13-.21-1.54-.1-3.31-.32-7.89.8-18.75.39-27.92,1.66-.7-.11-.29-.27-1.06-.38-3.53.26-7.08.67-10.56.65.12.23.92.93-2.44,1.3-1-.3-.1-.54-2.15-.59-.53-.24,2.05-.7,2.67-.37,1.42-.48-2.46-.48-2.23-.07-4.67-.43-9.58.74-14.24.36-1.12.65-4.29.65-6.38.27-.79.16-.45.25-.05.34-4.21,0-8.51.43-12.73.37-.38.16,0,.28-.44.45-6.09.08-14.59,1.12-19.1.68-.37.11.14.16.33.23-6.74.31-13.54,1.07-20.24,1-4.83.74-12.76.86-18.79,1.29-1.45.31.27.38-1.19.69a6.4,6.4,0,0,1-1.5.11c1.53-1.06-4.6-.07-6.67-.17-.74.52,1.68,0,2.2.18s-1.73.39-2.29.51c-2.41-.91-7.5.17-11.16,0-1.46.32.26.38-1.2.69-.51.11-1,0-1.5.12-.38-.11.66-.34,1.18-.52a7.52,7.52,0,0,0-3.39.35c-.07.17,1.23.24-.06.51.73.12,1.52-.24,2.23,0-1.3.45-2.49.07-3.8.63-1.18-.41-2.47-.07-3.71-.05-.28-.4,2.46-.1,3.41-.52-2.38-.38,1-.3,1.93-.57-3.57-.34-3.29.34-6.72.17-.65.22,1,.26.69.46a3.24,3.24,0,0,1-1.12,0c-.59.28-.24.33.72.28-1.94.64-3.79.63-5.72,1.26-1.14-.07-1.79,0-1.44-.38-1.62.15-3.34,1-4.93.85-.85-.1,1.21-.44,1.56-.65-1.22-.12-2.3.4-1.92.6-1.16.36-2.21-.16-3.37.2-.41-.13.9-.41-.69-.45-1.76.81-7.52,1.47-7.52.82-1.63.2-3.22,0-4.9.69-2-.51-5.08.56-5.95,0-2.05,1.22-6.88.13-10.14,1.24-3.1.07-6.25.65-9.34.64-1-.14,1.91-.21,0-.34-5.08,1.31-10,.63-15,1.64.6.1,1.24-.05,1.84.06.3.09-.51.29,0,.35-2.24.16-4.44,0-6.69.2-.41.26.61.1,1.09.14.65.24-1.68.11-2.27.58-.1-.21-.47-.26-1.46-.19-2,1.19-5.92.3-9,1.3-1.33-.08-1.3-.31.06-.69-1-.2-2,.22-3,.15-.41.18.6.22,1.09.31a12.14,12.14,0,0,1-3,.67c-.55-.12-.17-.33.8-.6-2.64.61-5.25.57-7.87.94-.41-.13.89-.45-.7-.44-1.54,1.07-9.47,1.38-12,2.08-.82-.33-3.8.13-1.43-.52-1.6.09-1.75.34-1.91.65-1.57.24-1.91-.6-4.08,0,.73.21,1.5-.17,2.23-.09-.5.15-.6.24-.39.31-3.74.4-7.43.33-11.22,1.5.12-.49-.19-.39-1.43-.67-1.16.4.34.47,1.06.63-2.05,1-4,.08-6,.92-2.26,0,1-.75-.3-.9-1.38.48-.66.71-1.2,1.09-1.44.49-1.45-.15-2.22.1-.38-.09.65-.36,1.15-.57-1.3.05-3.35.55-2.64.76-2.59-.25-2.56.27-4.43-.13a17.75,17.75,0,0,1-5.23.66c-.34.27,1,.32-.8.79l1.84.19c1.36-.17.67-.54,2.24-.28.78-.22.43-.29,0-.35,2.31-.26,9.53-1.36,8.16-.33.73.11,1.52-.46,2.27-.63,1.26.19.22.61-1.18.92.77,0,4.58-.52,3-.72,1.62-.34,3.2-.15,4.86-.86.67.11-1.56.59-1.16.74,1.27.19,5.13-1,4.07-.08.94.09,1.34-.43.77-.44a20.14,20.14,0,0,1,4.09-.23c.37-.18-.05-.28.41-.47.88-.25,1.74-.14,2.62-.39.06.13-.13.3-.41.47a64.4,64.4,0,0,1,9.74-1.29c.85.14-1.16.16-1.53.52,1.1.11,2.25-.4,3.34-.13a12,12,0,0,1-4.47.34c-1.18.86-5.13.48-7.5,1.21,4.94-.35,9.34-1.06,13.44-1.38.9-.42-1.15,0-1.47-.17,2.43-.76,2.41.45,4.83-.31-.73,0-1.48.09-2.22.09,1-.57,2-.12,3-.69,1,0,.15.27-.41.47a7.31,7.31,0,0,1,1.86-.12c.65-.68,7.08-1,10.1-1.19.64.34-1.67,0-2.26.4,5.13-.68,10.24-1.25,15.33-1.54.38.11-.65.36-1.16.55,1.57.27,2.8-.46,2.66-.71,2.24-.33,0,.51,2.17.46,2.1-.42-1.45-.25-.31-.57,3.12-.3,6.28-1.18,9.34-.87,1.18-.72,2.55-.58,4.55-1,1.35,0,.41.31,1.44.38a45.54,45.54,0,0,1,7.15-1c.53.27-2,.41-2.66.51a20.49,20.49,0,0,0,6.4-.87c1.41.06-.35.43,1.06.49-1.06.39-2.66.32-2.67.69a92.77,92.77,0,0,0,12.06-1.85c2.07.06-1.38.65.28.74a84.72,84.72,0,0,1,12-.71,10.13,10.13,0,0,1,4.49-.38c.76-.24-.5-.3.81-.59,2.86.32,9.72-1.21,10.07-.44,2.33-.26,5.12-.4,7.76-.57a50.48,50.48,0,0,0,6.87-.72c2.32.3,4.76-.41,7.05.05,1.69-.61,3.26-.3,4.95-1,1.35.06.4.31,1.44.4,8.75-.66,17.52-1.57,26.21-1.57.25-.24,1.21-.5-.32-.4,7.22-.18,14.44-.42,21.75-1.27,1.78-.34,3.44.18,5.2,0,.33-.13-.46-.19.05-.34a44.36,44.36,0,0,0,8.26-.48l2.17.38c7.71-.89,15.3-1,22.9-1.18.24-.1,0-.17.41-.28,3.3-.09,6.61-.24,9.93-.4l10-.45c6.64-.33,13.28-.67,19.9-.86,2.09-.61,11.15-.62,16.93-.79,3.12-.12,5.6-.53,7.87-.18l1.57-.39c1.45.57,4.91-.41,7.45.09,6.38-.83,15.43-.43,23-1.2l1.45.3c9.75-.83,19.29-.34,29.05-1.23,4.17.43,8.59-.52,12.75-.11,2.61-.57,5,0,7.59-.46,6.95.26,14,0,21.09-.38,7.76,0,15.57-.26,23.37-.49s15.6-.28,23.37-.22l1.57-.33c.68-.09.66.14.32.25,8.31-.31,14.31-.29,22.72-.63l1.42.34c1.58-.06.69-.63,3.08-.31.37.17-.64.06-1.17.24,1,.11,2.66,0,2.68-.22,61.23,0,120.72-.15,181.76,1.9l1.2-.19c8.22.63,16.72.16,24.89,1,1.48,0,2.82-.54,3,0a25,25,0,0,1,6.81.24l1.59-.23a69.63,69.63,0,0,0,8.7.34c13.82,1.23,28.06.94,41.76,2.59l1.59-.23a24.33,24.33,0,0,0,7.56.43c.68.2.25.31,1,.51,1.11-.55,2.32-.07,3.4.2,3.69-.26,8.06.2,12.9.55.62.2.61.34.25.45,1.13.17,1.39-.5,3.45,0,.38-.05-.12-.18-.3-.28,1.17-.06,2.21.33,3.45,0,.75.18.35.26-.1.33a40.21,40.21,0,0,1,6.15,0c1,.51-1.3.13-2.4.32,4.63-.07,9.21.08,13.8.11l1.76.58c-.44.35,1.1-.13-.65-.4,2.15-.27,4,0,6.94-.1.45.4,3.16.46,1.36.62,1.25.23,1.35-.41,3.75.32,1.81-.18-.87-.36-1.4-.47,2.76-.22,5.27.44,8,.18.35.15-.43.19-.84.26.71.17,1.55,0,2.19.39-.59-.53,1.36-.07,2.8-.33,6.4,1.22,14,.12,19.59,1.57,1.36-.64,5.37-.15,7.76-.09-.19.53-3.28-.15-4.66.06.58.22,1.23.19,1.8.43-2.2,0-4.48.32-6.65.29.35-.86-5.62-.51-6.8-.5a68.39,68.39,0,0,0,15.6.76c.35.18-.71.21-1.25.3,2.34.1,7.17.53,7.4-.21,1.46,0,.88.41,1.75.6,4.39-.16,7.12.09,12-.11,5.76.51,11.52,1.17,17.54.91a54.43,54.43,0,0,0,11.15.32c7.24,1.1,20.18.28,29.47,2.48-2.14-1.31,5.73,0,5.39-1,2,.28,4.3-.44,6.1.41a107.86,107.86,0,0,1,23.7,2.63c1.07-.14,2.24-.28,1.77-.63a10.84,10.84,0,0,1,3.63.81,11.24,11.24,0,0,1,3.45.19c.6-.39,1.64-.2,2.52-.53-.67-.31-1.54,0-2.24-.29a86.52,86.52,0,0,1,19,2.55c.86-.53,3-.41,5.46,0,5-.7,11.17-.47,17.3-.11l2.07.82c-.51-.63,3.41,0,5.11,0,.13.13.27.27-.11.33a123,123,0,0,0,15,.89c5.71.59,13.37,1.36,18.12,1,3.84.62,11.17.55,14.33.68,5.35.15,10.12.35,14.22.07a4.05,4.05,0,0,1-2.06-.85c1.1-.09,2,.26,3.11.16-1.8-.44-2.67-.25-3.67-.77-2,.3-5-1-5.75-.5-.93,0-1.62-.59-2.46-.83-2.42-.24-4.81-.57-7.18-.89,2.27-.1,3.28.05,6.4-.18-4.47-.61-9.76-1.22-15.25-1.76s-11.16-1-16.43-1.14a10.6,10.6,0,0,1-2.93-.6c-.12.13,0,.29.23.46-1.13-.15-2.3-.18-3.46-.24-1.46-1-6.06-.35-8.23-.08-1-.44.66-.48,1.79-.6-1.07,0-2.61-.5-2.47-.79,1.94-.1,2.22.26,3.56-.08-.78-.37-1.93.28-2.64-.3-1.43,0-.56.26-1.67.27a6.25,6.25,0,0,1-1.5-.22c.08-.27,1.76-.31,1.79-.59.39,0,.75.11,1.15.08-1,.39,2.31.44,3.74.54.67.24.24.32,1,.57,3.36.2,4.18-.57,7.21-.32.22.35-2.69.24-3.69.4,1.35.21,4.24.42,3.56-.08,3.53.79,7.41.59,11.18.68-2.15-.56-4.64-.23-7-.32,1.54-.62,6.12-.24,8.47.54a34.48,34.48,0,0,1,8.82.69c2.32,0,4.61.14,6.88.31s4.52.45,6.77.71c4.49.51,9,1.05,13.58,1.29-1.85-.7-4-.73-5.73-1.62a22.47,22.47,0,0,1-6.27-1.27c-.75,0-.37.17-.87.2-1.41-.8-3.23-.54-4.76-1-.69-.32.28-.36,1.33-.39-1.87-.65-4-.55-6-.92-1.46-.41.87-.28-.15-.62-2.86-.66-4.61-.25-8.08-.58-.85-.59,3.11-.4,4.51-.46a7.69,7.69,0,0,1-1.79-.52c-.39,0,.11.19.29.3-1.56,0-2.33-.47-3.12-.11-.67-.24-.23-.32-1-.57a51.89,51.89,0,0,1-7.56-.92c-1,.08-1.06.3-.24.65a10.34,10.34,0,0,1-2.36,0,3.17,3.17,0,0,1-1.14-1.2c3,.32,7.74.3,8.78-.27a138.62,138.62,0,0,1,14,1.78c-1-.84,2.4-.13,4.27.24.44.43-2-.33-2.71-.18,1.86.67,4.12.27,6.16.48,1.36.44-1,.27,1,.59.6-.49,5.75.29,8.42.85,2.36-.17,4.9.47,8.06.7.43-.51-2.68-.54-3.68-.76a63.3,63.3,0,0,1,13.65,1.7c3.32-.2,14,2.15,15.18.83,2.71.62,3.94.05,6.12.64,0,.3-1.53,0-1.34.39,6.16.36,12.29.42,13-.65-1.34-.47-3.79-1.12-3-1.43-3.13-.88-8.24-1.55-8.9-2.74-1.62.23-4.33-.39-4.81.08a5,5,0,0,0,1.56.08c.65.43-.22.19-1.27.22a7.84,7.84,0,0,0-2.87-.81c-1-.36-.57-.49.58-.5-.95-.21-1.87-.28-2-.06-2.19-1-7.63-1.25-11.37-1.5-4-1.41-8.62-1-13.1-1.1l-.69-.28c2-.62,6.17,0,8.46-.27-.67-.35-1.5-.27-2.13-.69-6.67-.07-10.55-1-17-1.37-.2-.12.06-.17-.29-.31a34.6,34.6,0,0,0,7.11.12c-.91-.4-2-.27-2.93-.64.35.41-.67.34-2-.07.27.28.18.49-.24.65-2.14-.53-7.12-1-6.31-.16-1,.12-.26-.58-1.77-.55-.19-.2,1.53.07.92-.36-1.5-.3-3,.14-2.55.44-1,0-.71-.57-1.66-.86-2.07-.05-.85.39-2.15.46-1,.05-1.22-.44-.63-.44-1.53-.38-1.3.2-1.68.27-.45-.09-1.94-.52-2.07-.81a23.53,23.53,0,0,1,2.78,0c-2.16-.6-3.31-.14-3.25.22-2.68-.29-5.09-.59-7.06-.17-1.88-.5.35-.41-.51-.76,1.56.08,3.08.23,4.62.33-1.34-.54-1.22-.87.37-1-.92-.31-1.88-.24-2,0-.09-.42-1.78-.28-2.07-.82a33.23,33.23,0,0,1-6.94-.49c-.48-.32,2.12-.15,2.66.3.4,0,.24-.08.06-.16l.8-.06a15.85,15.85,0,0,0-4.56-.49c-.65-.44.27-.65-.39-1.09a9.88,9.88,0,0,1-2.44.17c-1.35-.4-.85-.53-1.67-.85-1,0-.83.17-1.27.24-1-.31,0-.34-1.33-.7-2.33-.13-4.57-.5-6.82-.82-.89-.51.95-.09,2.08-.3-1-.38-2.36,0-3.35-.57,0,.13-.91.15-.52.35-5.41-1.08-11.22-1.07-16.65-2.08-.42.06.28.27.63.44a12.33,12.33,0,0,1-2.78,0c-1.11-1.49-7.45-.71-10.58-1.33,1.27-1.08,5.24-.19,8.39-.27-1.55-.49-3.63-.17-4-.85l-2.43.17c-.9-.26-.64-.37-1-.56a14.84,14.84,0,0,1,3.08.26c-.46-.45,1-.08,1.32-.41-1.52-.9-3.8.32-5.32-.57-1.82.25-3.72.49-5.39.76-1.44-.41-.59-.53.23-.65-1.11-.58-2.47-.43-3.71-.65.2.25-.22.43-1.73.46.72.19,1.57,0,2.2.46a11.59,11.59,0,0,1-3.76-.49l-3.65.3c-.47-.56.82-.3-1.74-.65-1.73-.45,1-.33-.52-.75-.75.74-2.78.23-5.33.59-2.22-.41-4.48-.7-6.67-1.2-1.94.57-4.17.45-6.87.57-1.65-.44,1.38-.28,1-.56a29,29,0,0,0-8.9.74c3.49.63,4.82-.34,7.16-.28.62.23.61.37.24.46.94.28,2.55-.06,1.68-.3,3,1.05,9.61-.18,13.71,1.26-2.85.65-8.63,0-12.38-.57-2.66.86-8,.11-12.84-.37,1.49-.34,2.34-.62,2.76-1.19-1.13.22-2.07-.06-3.18.11-3.16-1.32-4.77-.09-7.82-1.27-3.62,0-2.45,0-5.83-.15,1,.27-.28.25.24.46a17.18,17.18,0,0,0-3.13,0c-1.65-.5.52-.46,1.67-.32-.27-.42-4.72-.41-4.69,0-1.5-.2-3.12,0-4.47-.68-2.12-.28-4.54.35-6.6-.14-1.27-.63,1.11-.85,2.35-1.19-2.75-.24-4.07.33-7.76-.2-1.27-.47-.52-.46-2.15-.58-1.33.17,2.32.37,1,.54a21.2,21.2,0,0,0,3.41.3c.46.49.13.41,2.16.59.34.15-.44.17-.87.24-1,0-1.86-.66-2.9-.67,0,.14-.9.18-.51.37-1.31,0-2.51-.32-3.77-.43-.51-.28-.12-.33.86-.24.75,0,.29.17,1,.37.26-.23.87-.41-.13-.78-5.46.76-10.49.19-15.72.27-.53-.17-1.06-.35-.65-.42a33.75,33.75,0,0,1-7,.06c-.24-.46,3.9-.24,3.69-.52,1,.48,2,.38.4,0-4.33-.05-8.23-.26-11.52-.62-1.12-.7,4,.06,4.08-.56-1.46-.14-1.91-.37-2.71-.05a61.16,61.16,0,0,0-9.5-.72c-3.55,0-7.14,0-9.73-.12-1.06-.33,3.06-.15,1-.59-.78.41-2.71.38-4.4.34a18.71,18.71,0,0,0,3.38.42c.21.1-.05.16.3.28-2.36.09-4.44-.72-6.9-.33-.68-.21-.25-.31-1-.52-1.89.22-3.56-.21-5.39-.19-.62-.2-.61-.34-.25-.45-.84-.21-1.84.08-2.61-.34-.82,0-.49.18-.1.33-7-.72-11.71-1-18.63-1.39-.52-.23-.11-.35.91-.42-1.12-.15-2.31-.06-3.43-.26-1.87.05.69.53-1,.59a13.88,13.88,0,0,0-5.33-.34c-1-.28,0-.35-1.37-.65-.71.13.17.41-.55.54-2-.67-1.74-.11-4.58-.27-1-.27,0-.35-1.36-.65-.34.11-.37.25.25.45-2.42,0-7.48-.9-7.3-1.48-3.63.05,2.76.73.46,1.07-1.3-.11-.86-.31-2.52-.64-1.83.19-3.87-.29-4.73.29-1.66-.12-3.56-.21-4-.76l-2,.26c1.29.56.56-.32,1.86.24-1.14.55-6.63-.33-10-.15.61-.29.32-.6,2.11-.59-2.53-.67-3.19.41-5.89.28-1.61-.67-3.51-.34-5.33-.27a22.57,22.57,0,0,0-6.4-.61c-.47-.41,2,0,2.76-.2-.71-.32,1.15-.42.6-.72-2.17.34-5.18.19-7.14.6-.58-.2-1.53-.13-3-.41-.73-.56,4.55.25,1.7-.54,1.23-.25,2.24.27,3.48,0-1.05-.49-4.35,0-4.09-.6-1.29.21-2.62,0-4.68.13.22-.68-2.18-.18-4-.76-2.42.3-4.64,0-7,.15-.1.35,1.77.72,2.94.54-.32.58-3.59,0-5-.08-.31-.28.76-.49,1.3-.51-.22-.29-1.31-.37-1.33-.77-.25.75-2.26.06-4.37.47.76.5,1.79.05,2.58.43A11.9,11.9,0,0,1,875,307c-.34-.18.66,0,1.21-.17-.52-.2-1.6-.19-1.06-.33-1.36-.35-.61.52-1.92,0,.34.3,1,.63-.23.83-1.82-.12-.06-.29-1.37-.6-1.07.12-.72.34-.55.56a7.15,7.15,0,0,0-1.91-.05c-1.91-.5,1.3-.65-.08-1.11-.45.19-1.16.37-.94.61-1.37.29-2.42-.53-3.83-.09-1.37-.29-.88-.45-1.72-.71a20.77,20.77,0,0,1-5-.25c-1,.52-3.81.18-5.79,0-1-.24,2-.2.14-.5-1.78.41-3.63,0-6.14-.08-1.61.09.62.44-.54.56-2.22-.05-.31-.53-2.09-.83-1,0-1.42,0-1.6.23-3.53-1.17-7.71,0-11.36-.77-1.39.49-2.2.32-4.76.55a16.65,16.65,0,0,0-2.58-.39c-.34-.45,2.29-.11,3.16-.34a18,18,0,0,0-5.79.11c-1.86-.24-1-.4-2.09-.79-1.53,0-2.37-.25-3.12.17l-1.43-.42c.59.49-3.47.47-4.94-.18-1.29.56-2.32.24-4.23,0-1.6.23.15.11.67.38a14.81,14.81,0,0,1-2.67-.06c-1.4-.48-.39-.43.18-.67a15.24,15.24,0,0,1-4.77-.85,3,3,0,0,1,1.15,0c-.18-.33-3.73-.34-5.25-.45,3.94.44,3.14,1,7,1.31-3.68.54-4-.71-6.73-.7,0,.37,2.81.89,2.37,1.23-1-.37-3.57-.44-4.37-.92-1.11.31-1.2.68-2.18,1,.53-.58-1.37-.64-2.81-1-.71-.27,1.68-.36.17-.67-.7.24-1.06.22-.93.63-1,0-2.36-.42-1.56.08a19.24,19.24,0,0,1-3.29-.6c0-.26,3.46.15,2.8-.45-2.08.2-11.31.48-9.49-.42-1.13-.09-2.37.25-3.43-.1-1.73.71-5.67-.05-8.6.65-.59-.58-3-.31-2.09-.76-1.27-.18-1,.4-2.8.48A46.7,46.7,0,0,0,749,301c-.25-.48-2.76-.44-3-.13-1-.49-2.24-.24-3.31-.55.31.29.89.31,1.35.73a10.82,10.82,0,0,1-3.67-.66c-2-.15-1.1.46-3.78-.15-.17.13.41.3-.48.4a21.78,21.78,0,0,1,4.86.46c-2.78-.12-5.55-.28-8.33-.34-.22-.09,0-.17-.32-.27,1.31-.11,3.63.33,3.87-.18-2-.34-3.78.27-6.42-.35a4,4,0,0,1-1.55.11c-.34.13-.37.27.27.44-1.72.23-3.28-.15-5,.05-1.35-.23-.37-.36-1.4-.57-1.5.16.74.46-1.24.38-1.4-.28.94-.39-1-.47-1.09.1.11.29-.48.4-5.74-1.27-13-.34-17.71-1-.61-.18,1.13-.31.87-.48-2.11-.22-4.43.49-6.42-.26-.33.13-.36.27.28.43-.83.29-1.54.06-2.35.27-1-.16-.12-.28.48-.41-1.09-.25-2.29,0-3.4-.17-.41.1.32.23.68.35-.83.27-1.52,0-2.32.11-.1-.14.55-.27-.28-.43l-1.59.29c-1-.19-.05-.34-1.4-.54-3.7,0-7.39.08-11.05-.05l1.08.28a15.9,15.9,0,0,1-3.07.09c-1-.17-.12-.29.47-.41a40.45,40.45,0,0,0-7.3.22c-.54-.36-1.43-.47-3-.25,1.9.38.16.34-.88.49,3.5-.08,4.91.44,8.7.32.43-.15-.35-.08-.71-.19.84-.36,1.46.25,2.31-.11a16.42,16.42,0,0,0,2.88.76c-4.38-.47-10.5.11-13.61-.54-.25.08,0,.17-.44.24-1.49.14.39-.31-1-.45-2.44.66-4.62.22-6.88.07-.7.46-2.29.41-3.86.28.6-.33,2-.65,1-1,1.14-.1,3,.06,3.11-.3a3.29,3.29,0,0,1-2.2-.37c-.67.38-1.67.28-2,.57-1.29.11-2.49-.23-3.83.11-1.43-.64-4.86-.34-7.58-.11,0-.51-1.36-.49-3.4-.13-.27-.15-.23-.29.48-.42-2.48-.27-5.14.27-7.63.06-.71.16.92.35-.11.51-.81.22-1.42-.46-2.27,0-.64-.15-.64-.29-.29-.43-1.2-.09,0,.47-2,.23-.93-.18-1.26-.36-.65-.52-2,.23-5.34-.27-6.14.25-1-.18-.06-.34-1.41-.52-.09.52-2,.05-1.91.05-2.69.05-3.64.69-6.51.18-.57.5-3.69.26-5.38.33-.11-.14.54-.28-.29-.43-1.26.56-3,0-5.06.59-.64.35,1.89.45,2.6.26.68.07-1.79.39-2.34.33-.77.41,1.69.1,2.24.18.36.14-.69.28-1.23.42s-2.09-.53-3.79,0c-1-.2-1.83-.4-1-.59-1.33-.31-2.82.14-4.12-.27-.38.23,0,.52-1.62.51.93-.63,3.85-1.08,6.74-1.43-1.25-.06-2.47-.25-3.71-.35a2.55,2.55,0,0,1-1.95.25c-.4.14,0,.29-.47.43-1.73.23-.94-.2-2.57-.43.21.71-6.51.81-7.22.07-.06.42-1.61,0-2.74.42,1.19.3,2.55-.13,3.75.18-.09.31-3.27,0-4.55,0-.15.17-.59.33-1.62.5s-.85-.26.07-.34c-1.31-.13-1.47.44-.51.6a12,12,0,0,0,2.71-.25c.33.17.33.34.66.51-1.82.24-3.49-.28-5.31,0-.35-.33,2.76-.95.21-1,.39.46-.57.23-2,.42-.15-.5,1.32-.22-1.41-.51-.2.33-.36.44-2,.59-.54-.65-2.87.22-4.48-.35,4.59-.09,8.24-.62,13.33-.23-1.81-.57,3.51-.26,2.84-.93-.59-.16-1.25-.08-1.84-.26-.78.56-3.92.15-4.52-.18,1,.49-1.83.45-.56.94a13.51,13.51,0,0,1-3.05,0c-.73-.27,3.05,0,.47-.42.84-.38,1.48.21,2.31-.17-.7-.14-.27-.28-1.05-.42-2.28.56-2.86.12-3.37-.27-.14.72-4.91.25-7.29.41-.84.33.1.23,1.06.43-2.61.57-6.73.12-8.09.66-1.51-.18.28-.4-.26-.59,2,0,4.08-.19,6.07-.06.73-.24.77-.46.13-.68a2.87,2.87,0,0,1-1.51,0c-.19.12-.39.23-.07.34-2.06-.48-7.81.1-9.21.61,1-.87-2.7-.38-3.59-1a5.45,5.45,0,0,1-1.92.11c-.77.47,1.71.07,2.22.32s-1.62.6-3.64,1.14c-1.68-.45,1.68-.51,1.69-.87-1.86-.3-1.5.06-3.47.29.62.19.18.4.27.59-.92.14-1.72-.24-2.68.12,1.58.32,3.36-.41,4.88.2a27.37,27.37,0,0,1,5.81-.65c.65.2-1.74.16-2.31.19-.75.31,1.94.29,1.53,0,.31,1.66-10.88.41-16.87,1,.55.11,1.09.21.69.33.84.24,1.83-.28,2.64.06.18.24-2.86.58-3.82.21.73.39-2.56,1-3.89.55-.44-.09,2.31-.4,3.06-.2-.46-.5.88-.51,1.32-.95-1.63-.18-1.11-.31-2.94-.48,2.74-.22,4.29.1,7.69-.59-1.56-.38.19-.41-2.14-.66,0,.29,1.41.55-.92.86-2.54,0-5-.11-7.59.08.94.16,1.27.32.66.5,1.12.07,2.26.06,3.39,0-.1.24-1.59.41-2.37.54-.75-.11-.37-.23.07-.34-2.16-.21-.63.49-3.1.37-.12-.26.85-.52.53-.77-2.76.67-7.82.1-10.76.79-.52-.2.48-.41-1-.59a23.56,23.56,0,0,0-4.26.51c1,.15,1.34.31,1.43.48-1.81.24-3.55.12-5.37.46-.83-.32,1.39-1,3.12-.58-.83-.24.64-.53-.23-.76-1.63.64-3.34.44-6.59.91.82.33,1.8-.2,2.64,0-.13.42-2.24.12-3.49.5-.71-.13-.28-.28-1.06-.4-1,.94-4.44.07-6.53.56-1-.6,3-.52,3.19-.92a3.53,3.53,0,0,0-1.15.12c-1.66-.14,1-.37-.67-.5-1.38.29-3.39.06-2.73.49-1.33.4-2.5-.12-3.79.08-.27-.22.45-.56,1.58-.38-.23-.58-4.94.6-5.25-.22l-2.37.56c.93.12.69.27,1.06.4a3,3,0,0,1-2.21-.29c-2.42.74-4.62.14-8.68-.06-2.29.53-7.17-.06-10.65.45-.11.41,1.59,0,2.61.17-.6.47-4.35.5-6.12.55-.6-.41,2.38-.09,2-.5a6,6,0,0,1-2.18-.43c-.93.2-2.66.78-4,1.15-1.74.19-1.27-.4-2.55-.51-.9,0-3.83.59-3.39,0a46.62,46.62,0,0,1-8.77.55c-1.71-.2,1.47-.56-.25-.76-2.22.33.58.49-1.27.81s-1.79-.37-2.92-.58c-1,.21-2,0-3,.1.32-.24,0-.45-1.4-.63a1.3,1.3,0,0,1-1.18.29c-.93.27,1.17,0,1.46.29a9.41,9.41,0,0,1-3,.11c-.83.25,1.39.26,1.85.19.11.19-.32.41-.48.61-1.46.07-1.46-.24-2.3.25-1.61-.33.43-.32.47-.61-1.54-.18-1.42.24-2,.49-1.79.2-3.54,0-5.31.18-.09-.25,1.18-.56,1.26-.81-1.67-.07-3.17-.66-5.22-.29-1.44-.45-1.75-.71-5.17-.62,1,.13,2.28.09,2.19.42a14.29,14.29,0,0,1-3.43.23c-.77.21.5.32-.83.55,1.46-.1,4.19.24,4.54-.2.2.19.57.37-.48.62-1.31.1-.85-.44-2.66.2-1.67-.09,1-.38-.67-.48.24.5-1.84.58-3.46.41-1,.37.45.38,1.46.27-.66.2-1.28.14-1.94.35-.41-.18-2.62-.28-1.8-.52-.66,0-3.3.63-2.64,0-1.22-.11-2,.84-3.87.68-.37-.13.68-.32,1.2-.48-1.88,0-5.3-.28-6.06.27-.57.1-3.23.07-1.46-.27-3.34.22-7.74,1-9,2a18.78,18.78,0,0,0-2.67.2c-1.46-.22,1.41-.63-.62-.82a6.87,6.87,0,0,1,3-.14c1.81-.36,2.2-.66.89-.89-.37.1.15.16.35.24a9.17,9.17,0,0,1-3.43.24c-.85-.2,1.18-.08,1.57-.41-1-.31-2.07.33-3,0-.78.85-4.89.51-7.55.24-1.27.37-2.35,1,.23.92-.57-.41,1-.34,2.3-.3.38.13-.65.2-1.15.15.59.36,4.52-.16,6.4-.09-6.17.92-15.42,1-22.81,1.77-.37-.09.4-.25.81-.38a6.69,6.69,0,0,0-3.06.34c-.55-.52-1.52,0-3-.18-1.1-.13,2.54-.54.46-.62-1.43.64-2.18.36-4.94.36a7.11,7.11,0,0,1-4.57.43c-1.32.46-2.54.25-3.86.72-3.9-.94-11.2.46-18.06.34.13.36-1.63.8-2.3.32-1.56.3-1.16.47-1.23.68a7,7,0,0,1-1.5.1c.2-.27-.23-.5,1.24-.85-2.15-.19-.63.75-3.06.37-.66.65-1.3.48-3.47.66-.74-.15.2-.41,1.22-.68-3.67.71-9.18.68-11.89,1.9a10.24,10.24,0,0,1-3,.05c-1-.18,1-.59-.28-.75-1.4.34-1.13.54-.84.75-1.85.05-1.39.29-3.08.57-1.07-.37,1.42-1.14,3.17-1.26-.77-.07-.39-.23,0-.17a24.23,24.23,0,0,0-10.22.7c-1.35-.13,1.8-.6.09-.69-1.38.59-5.07.33-7.57.58-.75.2-.37.31-1.2.52-.11-.14.52-.33-.31-.41-1.39.14-.47.16-1.57.47-.3-.09.53-.27,0-.35-1.59-.23-3.28.2-3.07.58a2.53,2.53,0,0,0-1.13,0c-.36-.09.41-.26.8-.4-3.53.26-9,0-11.35.88-3.4-.17-2.56.38-4.52.23-2,.84-3.19.83-5.8,1.44a22.88,22.88,0,0,0,2.62,0c-1.17.41-2.25.05-3.41.39-.37-.08.39-.27.79-.41-2.39.17-4.75,0-7.14.19-.37-.08.4-.26.8-.41a14.4,14.4,0,0,0-3.42.38c-1.29,1-8.76.41-12.53,1.35,4.4-.25,8.82-.56,13.21-.72a28.15,28.15,0,0,1-4.55.39c-.61.46,2-.08,2.62,0l-2.33.71c-.71-.08-.3-.25-1.08-.33-3.19.5-3.1,1.28-6.89,1.28-.31-.27,2.53-.58,3.47-.9-.1-.19-1-.31-.31-.57a13.66,13.66,0,0,1-5.76,1.28c-.56-.11-.17-.32.81-.59-1.54-.15-3,1-5.35,1-1.55-.07,1.1-.56-.68-.61-.4.09-.23.13,0,.17.06.22-2,.24-1.58.66-.66,0-3.19.13-2.67.52a15.63,15.63,0,0,1-2.63.17c-.06-.31,2.6-.88,2-1.14-.94.2-2.29.47-3.45.77-1.05-.07-.1-.34-1.46-.38-2.28.34-4.54.44-6.81.66-.77-.13,1.45-.24,1.94-.61-2.89,0-3.61,1.26-6.46.88-.76.15-1.57.69-2.31.56-.91.33,1.17-.08,1.48.2l-1.16.37c-2.24-.12-4.54.48-6.77.36-.06-.44,3.05-.82,4.16-.53a14.36,14.36,0,0,1,3.07-.64c-1.24.14-4.14-.2-6.06.61-1.51-.09.46-.56-1.05-.65-1.5.76-6,1.19-9.52,1.61-.85-.23,1.18-.23,1.55-.51-1.61.18-.86-.2-2.22-.28-2,.48-4,.45-6.08,1-2.75-.23-2.75.41-6.88,1.42a36.47,36.47,0,0,1,4.93-.61c.79-.2.44-.28,0-.35a12.65,12.65,0,0,1,3-.32c.87.05-1.2.36-1.53.33a12.81,12.81,0,0,0,6-.12c1.19.38,5.41-.11,7.91-.59.88.16.42.42,1.88-.11a60,60,0,0,0,11.68-.75c.09.58,4.13-.27,2.95.39a31,31,0,0,1,3.44-.59c-.62-.1-1.26.05-1.87-.07.77-.16,1.52-.23,2.29-.39.28.11.26.26-.42.46,1,.18,2-.12,3,.06.74-.19.32-.26.8-.42a3.91,3.91,0,0,0,2.64-.17,4.84,4.84,0,0,0,1.86.08c1,.07-2,.53-.06.51,1.54-.81,8-1.14,9.45-.82,1.35.07.47-.31,1.55-.49.37-.09.75-.07,1.14-.19,1.41.08.41.36,1.82.44,2.52-.76,7.36-.71,11-.87a23,23,0,0,1,2.7-.66c-1.87-.21-1.52.44-3.41.38.94-.35.67-.25-.31-.57,2.49-.77,4.62-.66,5.28-.28-1,.4-2-.22-3,.26,1.68-.14,2.44.29,1,.68,2.4-.22,4.77-.18,7.16-.37-.73.53-.38.31,1.45.38a10.68,10.68,0,0,1-3.74,0c-.69.23.94.26-.06.52,1.4-.25,2.76-.11,4.15-.28,1-.31-.47-.41-1.43-.56a52.07,52.07,0,0,0,6.46-.81c.31-.26-.44-.42.08-.69,2.27-.33,0,.44,1.81.44.38.13-.63.13-1.16.35,2.16.38,7.2-.39,9.74.07,3.09-.79,6.07-.65,9.09-.87,1,.36-2.1.54-2.37,1,2.27.16,2.9-.8,3.37,0,.72-.34.76-.62.11-.86a51.94,51.94,0,0,1,7.93-.52c.88-.73,3.47-.68,5.35-.75.36.08-.41.26-.8.4a5.77,5.77,0,0,1-1.86-.11c-.52.12-.62.21-.42.28l-.78.23c1.36.12,2.81-.5,4.13-.06a15.23,15.23,0,0,1-2.65.29c-.52.5,2.2,0,3,.11-2.54.92,2.91-.09,4.86.06-.12-.26.4-.79,2-.92-1.07.51.94.36,1,.87a2.74,2.74,0,0,1,1.15-.16c-.66-.43,1.88-.54,2.38-1,1,0,4.19.27,6.43-.35,1.33.14.05.46-.1.69,2.1.08,4.08,0,5.23.17l1.56-.45-1.47-.24c-1.45.58-2.77.11-4.15.19,1.81-.49,3.51-.06,5.32-.52-.16,1,4.08.17,7.06.46-1.11,0-2.29.29-3.39.14-.16.44,3,.07,4.12,0,.37-.26.26-.47.86-.74,2.06-.27,1,.38,1.81.48A2.81,2.81,0,0,1,322,311c.11-.54,1.9-.66,3.78-.25-1.09-.49.58-.22,2.37-.84,2.1.34-2.75.6-.12.86.71-.67,2.13-.6,3.15-1.06,1.81.28-2.21.55-1.62.79a8.76,8.76,0,0,0,3.47-.64c1.68.27-1.28.27-.83.56,3.24.42,4.34-.35,7.62-.77.87.15.41.38,1.81.5,1.7-.49,3.28-.21,5-.53.46.2-.36.47-.11.68-.53.19-1,.12-1.53.26-1.26-.1.1-.35.07-.52a46,46,0,0,1-5.72.58,25.78,25.78,0,0,0,4.89,0c1.26.17-2.06.14-.81.39-1.74-.07-3.52.11-5.27.12-.34.13.46.2-.05.34-1.46.26-.41-.3-1.83-.32a5.75,5.75,0,0,1-1.91.19c-.26,1.07-3.66,0-5.73.78-1.34-.14.38-.54-1.44-.42-1.13.42.28.67-.9,1.09,1,.18,2-.2,3,0,.39-.14-.34-.21-.71-.3a12.78,12.78,0,0,1,3.78-.24c.2.29-1.21.22-1.59.61a37.34,37.34,0,0,0-4.55.47c-1.35-.13.37-.54-1.44-.41-2.56,1.41-10.72,1.06-15.56,1.45-.23-.21,1.54-.55.85-.73,4.52-.18,9-.18,13.56-.56.73-.36-1.67-.2-2.27.15-1.12-.22-2.68,0-1.05-.53-1.27.16-2.54.32-3.81.42-.29-.2,1.12-.52-.66-.63-1.24.57-1.62.43-3.44.48-1.42-.1.37-.42-1.05-.53a36.83,36.83,0,0,0-7.63,1c0-.14-.78-.23-.32-.4,1.09-.31.07.43,1.51-.1-2.22-.19-4.54.26-6.77.1l-2.73.78a7.5,7.5,0,0,0-2.17-.53c-1.6.68.92.49,1.4.75-1.43.4-2.7-.39-4.15.22-1.74-.21,1.58-.8-.62-1-.37.12.14.16.34.23a59.33,59.33,0,0,1-8.68.58c-1.57.49.83.68,2.18.52-1.41.27-2.91,1.2-4.24.92-.64-.27,1.57-.22,1.19-.52-.71-.32-1.53.33-2.25,0-.88.39.1.43-2,.74-.86-.1-.84-.27.07-.51-2-.19-1.92.83-3.83.63-.54-.21,2.12-.67.49-.8-1.46.31-1.05.48-2,.74a6.5,6.5,0,0,1-1.51.12c-.05-.27,2.05-.44,1.59-.8-1.92.18-1.45-.12-3.32-.34a85.72,85.72,0,0,0-9.85.92c2.2-.81-6,.14-8.63.13.21-.47,3.51-.24,5-.86-3-.15-5.8,1-7.93.61-.39.15.35.19.72.28-1.06.5-2,.2-3.07.6-2.76-.6-6.57.53-8.24,0-3.49.69-5.52.4-8.37,1.23,1.38-.09.43.08,1.47.22-4.22.92-5.33.06-5.54-.63-1,.43-.22.7-.87,1.1-1.63,0-3.27.26-4.88.21-.55-.18,2-.4,2.69-.69.37.16-5.7.25-6.78.48-.89,0-.84-.46,0-.34,0-.41-1.52.14-2.27.22-.4.15.34.19.71.27-3.09.33-7.8-.24-12,.65l-1.84-.25c-.78.25-1.51,0-2.29.4-3.18-.6-6.55.61-9.74.11a34.93,34.93,0,0,1-10.15.65c2.09-.49,2.22-.69,3.84-1.09-3.76.43-7.63,1.43-9.45,1.09.05.72-2.67,1.35-1.7,2.06-1.88.11-3.74.08-5.62.17.13.75,6.89-.46,6.68.49-.77.28-1.48-.11-2.23-.11-.33.57-3.08.37-4.58,1,.26-.31.47-.62-1.43-.7.13.4-1.07.61-2.71,1.07-1.15-.2-3.29-.38-3.38.13-1.35-.07-.6-.45-2.21-.26-.75-.24.15-.24,1.17-.56a27.11,27.11,0,0,0-4.92.65c-1.28-.13,1.42-.73.08-.86-.68.21-1.25,1-2.68.74-.24.22-1.19.53.33.56-2.15.44-1.81.32-2.7.91-.78.38-1.47-.3-2.25.09-1.75.53.93.23,1.46.34-1,.19-2,.06-3,.35-.75-.14,1.6-.64.06-.69-.49.43-2.69.47-1.88.13-2.3.94-6.16,1.05-9.42.86-.12.21-1,.53-1.18.75a7.73,7.73,0,0,1,2.22.23c1-.26.2-.31-.34-.38,3.15-.54,6.26-.36,9.39-.51-2.68.62-5.26.22-7.92.84a40.3,40.3,0,0,1,4.11-.06c-1.53.38-3,.09-4.56.88-.75-.13.65-.53-.69-.59-.64.24-1.27.23-1.91.49-1,0-.16-.27.41-.48-.74-.08-1.52.32-2.24.11-.41.54-2.85.55-3.08,1.07-2,0,.09-.58-1.44-.68-1.54.46-5,.57-5.25.32-2.35.6-2.31.06-4.53.56-.86-.2,1.18-.25,1.54-.53-2.11-.11-4.28.54-6.39.54-.83.37-1,.49-1.19.93-1.26.08-3.66.56-3.81,1-1.67.05,1-.47-.71-.42-1.13.05-2.28.52-3.4.37-1.43.42-.48.49-1.91.68-1.22-.12,1.79-.81,1.58-1.06.89-.38,1.71.33,2.62-.27-.33-.35-3.31.1-4.89.57-1.36,0-.42-.29-1.47-.32-1.92.56-5.81,1.43-6.43,1.12-.65,0-.7.24-.39.31a12.11,12.11,0,0,1-4.13.31c-.91.46-1.77.36-2.67.81,1.65-.52,3.23.13,4.9-.61,1.09.28-.5.67,2.2.56a5.33,5.33,0,0,1-3.39.38c-1.51.64,1.49.1,1.46.48a3.26,3.26,0,0,1,2.26-.3c1-.46,1.88-.36,1.92-.69-1.24,0-2.29.35-1.86-.18.89-.27,1.74.13,2.63-.26.65.24-1,.58,1.09.45-.75-.48,1.68-.21,3-.4.23.07-.18.63-1.15.58,1-.15,3.45.09,5.25-.36,1.38.55,3.73-.25,4.82.3,1.94-.42,1.72-.75,3.8-1,.39.09-.65.37-1.15.58,1.59.33,3.24-.2,4.86-.19.59-.3.23-.35-.73-.25,1.07-.56,2.68-.34,2.67-.77.12.07.47.49,1.49.16.73.23-.16.25-1.17.58,2,.05,4-.62,6-.24.75-1,2.78.07,4.55-.91-.41.59,1.59,0,1.84.37a11.53,11.53,0,0,1-4.12.26c-1.27.88-4.79.74-7.14.63-.15.28-.31.56-1.94,1,3.68-1.28,10.73-.13,14.34-2.13,2.38-.21,4.77-.65,7.13-.62.59-.3.24-.35-.72-.26l2.3-.78a8.12,8.12,0,0,1,2.25-.09c-1.16.41-2.26.23-3.43.82,1.11.1,2.25-.06,3.36,0l1.53-.52a15,15,0,0,1,1.88-.13c.75.11-.17.42-1.19.74,2.81-.17,1.55-1,4.57-1,.32-.18.32-.33-.34-.39a8.91,8.91,0,0,1,2.28-.44c-1.54.93,4.3.46,6.29.56-2.22.46-7.73.59-7.56,1.21-2.26.28-4.5.24-6.77.61-.26.52,2.73-.17,3.74-.08-1.8.44-1.8.24-3.06.86-.88-.64-2.2.17-2.94-.51-1.91.53-1.06.75-.46,1-1.45.32-1.46-.22-2.22-.26a20.89,20.89,0,0,0-2.66.76c-1.37,0-.42-.29-1.47-.33-1.69.63-1,.14-2.63.24-1.77.49-3.51.49-5.29,1-1.53,0,.23-.43-.33-.56,1.85-.37,5.21-.38,4.93-1a28.61,28.61,0,0,0-3.05.72c-.08-.1-.19-.2-.72-.25a5.77,5.77,0,0,1-3.39.51c-2.17.58.21.6-2,1.19-.38.1-.75.09-1.14.22-1.34-.06-.08-.44.06-.69-1-.29-2,.22-3,0-.79.21-.43.28,0,.35-2.27.49-4.47-.05-6.79,1-4.07.26-7.19,1-10.49.89-1.29.61-2.52.45-3.78.68-.46.48.07.5-1.18.93a16.89,16.89,0,0,1,3,.29c.84-.53.15-.33,1.54-.89,1.65-.34,3.25-.25,4.91-.92,1,.19-1.64.85-1.94,1.21.89.1,3.72-.58,3.35,0,2.5-.2,5-1.17,7.5-.83-1.51.46-3,.51-4.53.94a10.28,10.28,0,0,1,3-.05c.43-.42.78-.47,1.5-.2,2.93-1,5.75-.4,8.65-1,1.5,0-.2.37-.79.61,1,.19,2-.26,3-.2a4.68,4.68,0,0,0-2.55-.63c-.07-.13.13-.3.4-.47.89-.15,1.76-.17,2.63-.25.42.12-.88.46.71.43,1-.26.76-.38,1.17-.57s1,0,1.5-.19c.9.25-.81.3-.8.61-1.14.37-2.23,0-3.38.51,11.62-1.12,23.29-2.48,34.9-3.22.82-.8,4.56-.87,5.25-.44.81-.46-.36-.7.48-1.16,2.18-.41,1.94.3,4.13-.19.37.08-.4.27-.79.43,1.88-.1,3.8-.71,5.66-.69-2.32,1.17,4.45,0,7.41.41,1.53-.33-.14-.33-.7-.44a33.12,33.12,0,0,1,4.49-.13c.47-.2-1-.19-.34-.39a8.11,8.11,0,0,1,2.25-.07c.13-.19.54-.4,1.55-.68,1.69-.45,1.12.33,3-.32.55.11.17.32-.81.6,4.5-.23,3.76.1,9.39-.69.28.11.27.26-.41.46,3.56-.84,7-.69,10.57-1.36.16.1.33.2,0,.35a18.39,18.39,0,0,0,4.21-1c1.19.06,1.17.23,0,.52,4.54-.64,8.95-.13,13.58-1.48,1.41.08-.35.43,1.06.51-.77.24-1.49,0-2.28.37,3.55-.45,8-1.35,12.47-1.34.6-.43-2.94,0-.67-.62a19.86,19.86,0,0,0,5.21.06c1.19-.65-1.57.09-2.61,0a22,22,0,0,1,4.19-.62c0,.28-.38.6-.87.93,3.82-.46,6.65-1.34,11-1.38.3.08-.52.27,0,.34s1.24,0,1.84.1a10.66,10.66,0,0,1,2.33-.72c.1.16.48.3,1.45.39,1.91-.33,3.78-.37,5.67-.52.85.15-1.21.39-1.54.28,1.39.42,4.64-.45,5.74-1,1.94.08.17.44-.84.74,2.64-.2,5.37-1.12,8-1,.86.06-1.24.6-1.54.28.42.34,1.86.36,3.71.23-.59.07-2.28.29-.8.4-.76.16-1.48-.08-2.28.35,1.21.22,2.51-.2,3.75-.12-.47-.19.6-.7,1.94-.57.42-.2-.62,0-1.1-.18a24,24,0,0,0,4.62-1c1.77.09-.88.52.66.63,1.14-.36,3.06-.51,3.11-.92,3.19-.13,6.85-.2,9-.51.06-.2-.34-.37,1.21-.68,1.17.42-1,.82,2.15.71a11.46,11.46,0,0,1-3,.38c.09.43,3.51-.31,4.9-.24.15-.16-.44-.26.43-.46a9,9,0,0,1,2.95.32c1.46-.3.51-.44,2-.73,1.13-.13,2.11.61,4.14-.19,1,.1.08.33,1.44.42a9,9,0,0,1-2.65.26c5.54.47,14.59-.95,21.47-1.17,0,.22-.65.49-1.6.78a38.26,38.26,0,0,1,4.13-.18c1-.27.66-.44.46-.63,3.33-.2,9.4.27,12.89-1.05,1.07.32-1.34.37-1.22.66,2.43-.12,3-.18,4.9-.19.38-.16,0-.28.44-.45,2.5-.31,6.56.44,7.92-.36.86.15.4.38,1.79.5,1.15-.17,2.34-.64,3.42-.27,1.85-1,6.45-.16,9.5-1-.32.19,1.35.27.67.47,1.92-.28,3.86-.67,5.66-.17a9.69,9.69,0,0,1,2.31-.44c.09.11.18.21.7.31.39-.29,2.44-.39,1.52-.07a21.44,21.44,0,0,1,5.28-.24c-.43-.35.58-.42,2-.51.36.1-.41.24-.81.37,1.87.05,3.78-.21,5.65-.16-1.53.48-1.95,0-2.71.54a17.52,17.52,0,0,0,3.39-.06c.36.12-.68.31-1.2.47-1.39.06-2.69-.43-4.14.11,1.68-.19.87.53,2.57.31.42.36-1,.46-2.34.61-.64-.17.31-.41.47-.62a4.55,4.55,0,0,0-2.71.55,15.18,15.18,0,0,1-3.75,0c2.79,0,2.15-.64,4.22-.61.75-.35-2.39,0,.08-.52,1.49-.34-.39.55,1.09.21,2-.46.27-.21-.68-.48a6.53,6.53,0,0,1,1.52-.07c-1.59-.24-6.57.48-9.43.34.72.46-1.45.16-1.59.58a40.9,40.9,0,0,0,5.34-.58c.75,1.1-5.39,1-7.35,1.43-2.73-.3,0-.85-1.69-1.2-.19.58-2.49,0-3.82.53,1.18-.16,4.48-.1,3.3.43-2-.47-2,.38-4.9.16-1.5-.17.49-.53-1-.71l-1.95.54c.55.08,1.1.16.7.3-3.59.62-7.08.66-10.64,1.1,1.07.35,2.25,0,3.36.07-2.16.41-6,.85-6.76.21a8.89,8.89,0,0,0,3.06-.51c.47-.35-1.8,0-1.07-.37-2.38.22-4.48,1-6,.34a6.1,6.1,0,0,1-2.66.23c0,.14-.84.33-.43.45-2.73-.14-7.59.74-9,.16-1.64.13-3.29.37-4.95.53-.05-.14.16-.29.44-.45-1.4-.09-1,.38-1.94.54-1.49-.18-.56-.53.12-.86-1.7,0-3.86.3-4.46-.21-.54.37.87.62-.89,1.08,2.33.1,1-.81,3.81-.6.45.31-.15.56-1.6.79-2.92.36-5.69-.29-8.61.15-1-.4,1.27-.37,2.33-.67a13.55,13.55,0,0,0-3.8.42c.09.11.19.22.71.3-1,.16-1.36-.11-1.53.27-2.09-.21-4.35.84-6.38.17-.29.4-3.47.67-3.77.25-1.32.82-4.88,1-7.22.9-.74.16-.33.25-.81.4-1.93-.16-4.16.24-4.06-.33l-2.73.78c-2.53-.09.84-.63-.63-.8a15.11,15.11,0,0,1-4.92.46c-.26.3-1.86.71-2.37,1-1-.26,1.9-.82.14-1-.11.84-4.94,1.17-7.23,1-1.94.32-1.76.82-3.83.81.12-.32,1.59-.78-.69-.46-.36-.23.71-.57,2-.92a1.4,1.4,0,0,0-.75.06l-.73-.12c-1.23.32-.37.48-1.6.81-2,.4-1.62-.31-3.68-.4-1.42.44-2.75.06-4.16.4a10.31,10.31,0,0,0,4.51-.17c0,.2.85.33,1.8.46-1.62,0-1.46.4-3.38.17-1.71.3.89.27-.82.57-1.59-.29-5.13.08-7.86.18-.48.26,2.2.1,3-.06.44.63-3.26.83-5,.81-1.08-.33,2.64-.24,1.56-.46-1.87-.3-1.53.42-3.41.36,2.29-1-5.78.63-8.2,0-.91.43-3.75.88-5.77,1.44.28-.78-5.88.42-6.79.76-.56-.06-1.11-.13-.72-.28-.63.32-2.17.15-3.8.67-1.15-.52-2.62.22-5.3.63-.53-.15.44-.43-1.06-.5-4.73.9-7.21.75-12.08,1.5-.53-.17.44-.47-1.08-.32-.14.7-2.64.54-3.74.19.74.45-1.76,1.06-3.84,1.05-.62-.36,2.37-.23,1.93-.61-.62-.11-1.25,0-1.86-.08-.58.28.34.39-1.17.54-.45-.1,1-.38.41-.46-2.37,0-3.16.34-3.05.63-1.88.33.06-.54-1.83-.25.21.4-1.44.7-3.08,1-.63-.45-1.17.1-2.59-.17,0,.36-1.94.53-3,.48-.12-.19.79-.19.42-.47-.63.6-6.46.63-5.72,1.38-1.35-.1-2.81.82-4.16.69-1-.26,1.27-.39,2.33-.93-1.37,0-2.76.35-4.13.36-.71,1.15-5.79,1.18-7.22,1.53.14-.34,2-.66,2.69-.88.76,0,.39.19,0,.34,1.63,0,1.18-.38,3-.66-2.5.16-3.12.34-5.2-.13-1.56.36.15.38-.44.64-2.2-.39-11,1.21-14.27,1.4-.49.11-3.13.7-1.93.82-2,.61-3.68.07-3.79.78-1.1-.1.16-.47.06-.69a5.79,5.79,0,0,1,1.86,0c1.21-.48-.85-.44,1.56-.86a31.81,31.81,0,0,0-4.55,1c-.1-.1-.2-.2-.72-.25-1.27.44.78.12.32.56-1.14.29-2.24.11-3.4.65,5.72-.24,11.48-.89,17.23-1.47,1.66,0-1,.44.71.44,1.42-.16,1-.31,1.91-.63,1.49.18-1,.78-2.35,1.27-3.19.32-6.73,0-10.86,1-1.13.15-2.23-.07-3.36.13,1,.26.72.25-1.52.35-1.31.32,0,.34-.79.6-2.79-.33-3.47.25-6,.52-1-.05-.1-.33-1.45-.34.13.36-1.07.75-2.67.73-1-.05,2-.56.05-.51a3,3,0,0,1-1.51.17c-.06.15-.46.34-1.16.57a65.88,65.88,0,0,1-7.45.25c-.68.81-2.47.13-4.14.77-.76-.23,1.44-.29,1.91-.67a26.43,26.43,0,0,1-4.12.43c-.76.17-1.55.74-2.28.63.45.39,0,.4-1.94,1,2.88-.46,4-.06,6.38-.71,1.36.22-.94.42.32.56,1.55-.45,1.66-.72,1.18-.92.9-.24,1.76-.25,2.65-.58.07.55,2.48,0,3.74-.3.94.25-1.62.52-1.94,1a4.32,4.32,0,0,0,2.28-.63,12.13,12.13,0,0,0,3.71.06c0-.23,1.29-.62,2.31-1,.45.23-.13.58,1.43.69a12.92,12.92,0,0,1,3-.35c-.42.25.48.34.32.56,4-.63,8-.94,12-1.21,2.31-.82,4.49-.31,6.78-1,3.88.44,9.67-1.56,12.33-.73.78-.4,1.51-.26,2.29-.58a18.13,18.13,0,0,0,3,.19c-1.54.38-2.77.16-3.42.79.68-.53-.9-.11-2.22-.1-.95.46.49.21,1.47.18a23.64,23.64,0,0,1-5.27.74c-.67-.1,1.73-.47,2.27-.42-.6-.38-4.5.5-6.38.6.85.23,1.76-.26,2.61,0-3.46.25-4.78.82-7.93,1.3-1.09-.07,2.5-.69.44-.65l-1.53.52a44.37,44.37,0,0,0-9.41,1.34c2.2-.73-1.39-.17-3.33,0-.24.25-1.19.56.34.39-2.65.95-3,0-5.26.78-1.06-.14-.5-.46-.32-.74a5.22,5.22,0,0,0-2.68.91c-1.56.38-4.46,0-4.87.68-.67.08-3.17.16-2.59-.1a34.74,34.74,0,0,1-9,1.29,12.85,12.85,0,0,0,3.42-1l-3.71-.05c-1.1.24,1.11.47-.41.48-.7.54,1.7-.22,2.26-.28.29.53-4.12,1.46-6,1.09-2.49.28-5.07,1.71-7.53,1.48l-1.52.54c-1.25,0,.08-.35,0-.51-1.49,0-3,.94-4.5.77-.76-.22,1.44-.42,1.9-.68-4.22.79-8.16,1.66-10.85,1.36a14,14,0,0,0-3.76.85c.86,0,1.07.14.34.38-1.48-.23-5.55.93-8.2.81a6.41,6.41,0,0,1,2.63-.63c-.73-.19-4.7.37-6.7.61-1.75.68,1.29-.18,1.84.17-1.27.46-2.5.37-3.76.88.29.1.27.24-.4.48,1,.11,1.37-.16,1.47.14a8.46,8.46,0,0,0-1.5.38c-1.88-.38-2.43-.13-4.81-.09,1.27-.6,2.48-.1,3.75-.7-.86-.2-1.74.14-2.59-.06.76.24-2.7,1-4.15,1.21-.37-.06.38-.29.76-.46-1-.27-2,.27-3,.1-.64.27,1,.19.72.41-2.63.7-5.22.66-7.84,1.27,0,.46,1.89-.36,3-.28.23.05,0,.18.36.21-1.89.11-2.42.53-4.5,1,.09.47,1.91,0,2.62-.48,1.71,0-1.67.77.72.4C59,357.11,56.36,357.59,58.2,357.73Zm142.19-13.34a13.18,13.18,0,0,1,4.12-.31A12,12,0,0,1,200.39,344.39Zm114.49-6.32c-1.2.47-3.77.32-2,.73a31.9,31.9,0,0,1-6.37.34,11.22,11.22,0,0,0,2.35-.84,5.6,5.6,0,0,0,1.83.13c.51-.15-.27-.21,0-.34C312.14,338.15,313.58,337.6,314.88,338.07ZM1173,342.78c1.38-.07,1.13-.45,2.7.13C1175.66,343.16,1173.94,343.19,1173,342.78Zm.19-9.24a20.4,20.4,0,0,0,4.81-.16,4.09,4.09,0,0,0,2.66.3,5.94,5.94,0,0,1,2,1.14c2,0,.8-.57.35-1,3,.62,2.55,1.38.62,1.55-2.41-1-5.45-.24-8-.9-1.23-.55,1.52,0,.94-.38C1175.31,334.14,1173.13,333.86,1173.2,333.54ZM938.75,311.26c-1.47.18-2.75-.31-4.18-.26A10.94,10.94,0,0,1,938.75,311.26Zm-119.29-6.74c-.6-.33-3.16-.39-2.49-.73C817.93,304.22,820.73,304.05,819.46,304.52Zm-90.17-4.16c1,.11,2.09-.15,3,.29C731.43,300.88,728.75,300.69,729.29,300.36ZM200.06,315.49a25.89,25.89,0,0,1-4.88.22C196.57,315.6,200,315.08,200.06,315.49Zm31.52,2.6c-.16.39-6.85.88-5.64.23C227.78,318.59,229.74,317.78,231.58,318.09ZM98.85,331.45c.4-.19.21-.31,1.17-.58.61.1,1.24-.07,1.86,0A5.75,5.75,0,0,1,98.85,331.45Zm174.69-5c-3.44.29-5,.39-7.9.52A35.28,35.28,0,0,1,273.54,326.47Zm-72.69,6.44c-1.15.06-4.25.48-4.12.14C197.88,332.93,201,332.47,200.85,332.91Zm-37.18,3.26a2.84,2.84,0,0,1-2.29.58C160.72,336.6,163.14,336,163.67,336.17ZM71,354.45c-.79,0-.42.19-1.14.42-1.09-.39-2.25.63-3.34.24C67.77,354.45,71,354.14,71,354.45Zm52.57-4.93a9,9,0,0,1-3,.38A5.64,5.64,0,0,1,123.54,349.52ZM175,346.33c-.13.34-2.52.6-3.74.39A9.67,9.67,0,0,1,175,346.33Zm10.87-1.07c-1.29.35-4.48.54-4.47.13C182.85,345.46,184.38,345,185.84,345.26Zm-76.16-8.9c2.5-.26,5-.84,7.52-.94A25.06,25.06,0,0,1,109.68,336.36ZM218.2,347.87c-.23.41-2.81.65-4.13.49A8.64,8.64,0,0,1,218.2,347.87Zm-49.44-6.52a19.36,19.36,0,0,1-3.75.4C166.06,341.39,169,340.89,168.76,341.35Zm-59-6.55c-.54-.19-2.94.51-2.23-.05C108.58,334.69,110.92,334.16,109.79,334.8Zm2.66-.58c.63.41,1.17,0,2.61-.07-.62.22.82.18.34.38-1.83.18-1.32-.2-3,.38l-1.12-.12C111.69,334.59,111.49,334.48,112.45,334.22Zm7.06.23a12,12,0,0,1-3.76.47A6.63,6.63,0,0,1,119.51,334.45Zm47.39,3a8.72,8.72,0,0,1,2.27-.42c-1.71.46-.65,1.17-3.09,1.18C165.46,337.88,168.22,337.58,166.9,337.45Zm-35.7-4.72-1.54.54-1.1-.12A6.17,6.17,0,0,1,131.2,332.73Zm-22.56-2.41c-.58-.52-1.54.25-3,.23C105.43,330,111.13,329.51,108.64,330.32Zm66.55,6.07c2.41.11,5.4-1,6.72-.37.25-.54,2.84-.8,4.17-.7-3.63.5-3,1.05-6.5,1.8-1.4-.54-1.36.23-2.2-.28-1.91.34-5.8,1.13-6.4.77.33,0,2.38-.28,1.52-.33a14.41,14.41,0,0,1-3.75.22,5.41,5.41,0,0,1,3-.14C172.94,337,175.09,336.87,175.19,336.39Zm40.24,6.21c-.08.43-2.23.53-3.4.58C212.11,342.82,214.28,342.52,215.43,342.6ZM167,336.07l1.47.18a5.29,5.29,0,0,1-2.27.41C167.92,336.31,165.33,336.42,167,336.07Zm-45.26-6.61c-1.16.53-2.23-.12-3.39.51-1.2-.09.15-.63-1.84-.37C119.18,328.65,119.54,329.66,121.77,329.46Zm21.82,2.25a6.8,6.8,0,0,1-3.41.65C141.31,332.2,142.49,331.52,143.59,331.71Zm-14.79-1.5c-1.31-.32,2.5-1.41,4.21-1.3,0,.33-1.09.69-1.94.84C131.05,329.31,129.58,329.78,128.8,330.21Zm69.55,5.16c0-.44-1.48,0-2.27.39-1,.07-1.37,0-1.47-.2-2.68.67-5.24.33-7.92,1.06-1.18-.08.18-.77-1.85-.06-1.28-.11-1.28-.8.82-.77-.43.16-.8.32,0,.35.37-1,4.73-1.19,7.25-1.69l1.83.25c1.51-.19,3.06-.84,4.53-.61-.74.61-4.2,1.05-6.07,1.1.36.09-.2.17-.77.24,1.25-.09,2.47.15,3.72,0a12.5,12.5,0,0,1,5.69-1C198.77,334.72,199.53,335,198.35,335.37Zm-52.1-4.23c.69-.25-.95-.23.05-.51.71.29,1.52-.39,2.24-.09-1.16.42-.86.67-2.33,1.12l-1.11-.13Zm109.73,14c.53.22-2,.79-2.65.49C254.21,345.42,255.15,344.83,256,345.13ZM238.64,341c-.94.66-4.89.25-3.37.21C236.39,341.2,237.55,340.78,238.64,341Zm-96.26-12.58-1.53.52c-.38-.07-1.12-.1-.73-.26C140.88,328.72,141,328.18,142.38,328.43Zm14.15.24c-.73.23-.53.35.34.39l-1.92.65c-1.13.06-2.23,0-3.35,0C153.24,329.43,154.89,329,156.53,328.67Zm-13.38-.5c.76-.35.47-.57.45-.82.74.08,1.52-.3,2.24-.09-3.08,1,2.71,0,1.82.56-1.5-.08-5,.89-5.25.26Zm20.06.95c-.57-.55-2.5.23-4.13.2C160.11,328.41,164.33,328.35,163.21,329.12Zm3-.14c1.37-.07.39.5,1.47.18.68-.27-.25-.37.43-.64l1.49.18c-.58.21-1.4.43-.43.48a6.44,6.44,0,0,1-2.66.53c.43-.16.8-.31,0-.34-1.39.32-.48.39-1.56.68C163.28,329.92,165.81,329.33,166.21,329Zm10.33,1.12a10.43,10.43,0,0,1-4.89.43A16.36,16.36,0,0,1,176.54,330.1Zm-27.72-2.67c1.9-.43,3.74-.11,5.65-.57a19.89,19.89,0,0,1-4.93.83C149.92,327.53,149.37,327.48,148.82,327.43Zm59,6.08-1.55.49a4.43,4.43,0,0,0-3,.29l-1.09-.14A32.28,32.28,0,0,1,207.86,333.51Zm-50.81-6.35c-1.12-.06-2.27.26-3.38.13C154.61,326.88,157.42,326.73,157.05,327.16Zm100.3,12.74c-2,.41-4,.2-6,.52C252.09,339.8,255.49,339.87,257.35,339.9ZM149,325.7c-.22-.17.71-.48,1.18-.74a22.55,22.55,0,0,1,3-.35c.4.21-.22.54-.44.83a19.12,19.12,0,0,1,5.33-1.13c1.55.41,3.05.16,5.59.15-1.18.57-5.21.66-7.55.84.66.07.65.21.34.39-2.26.26-2.9.19-1.85-.21-1.75.3-7.16,1.23-8.64.57C147.78,326.07,147.32,325.81,149,325.7Zm19.61,1.83c-.61.5-1.3.81-3.43.79C167.68,328.07,166.06,327.73,168.58,327.53Zm-14.42-1.4a20.83,20.83,0,0,1,2.62-.05C155.68,326.51,153,326.64,154.16,326.13Zm59,6.87a5.48,5.48,0,0,0,1.9-.26l1.83.24c2.57-.65,3.18-.35,6.05-.92-.76.24.51.29-.8.59a14.61,14.61,0,0,0-4.52.43c.57.23.69.51-.85.94a26.62,26.62,0,0,1-3.34-.1c1.16-.4,2.27-.28,3.44-.76C216.22,332.87,213.34,333.34,213.12,333Zm1.08.33a7.82,7.82,0,0,1-3.74.19A15.76,15.76,0,0,1,214.2,333.33Zm-50.3-7.61c1.67,0-1,.44.7.44a7.64,7.64,0,0,1-3,.32C161.58,326.25,162.9,325.82,163.9,325.72ZM273.21,341a7,7,0,0,1-3,.41A8.41,8.41,0,0,1,273.21,341ZM161.7,325.27c.78.06.38.24,1.09.31a4.68,4.68,0,0,1-2.63.19Zm32.92,3c.67.08,1.06.18,1.09.32a16.34,16.34,0,0,1-4.89.39C192.11,328.41,193.32,328.77,194.62,328.22ZM168,325.36c2,.12,4-.56,6-.46-2,.13-4.08,1-6.05.81C168.51,325.54,167.71,325.51,168,325.36Zm8.87.94,1.54-.5c.44.15,1.34.25,1.07.48C178.68,326,177.76,326.54,176.91,326.3Zm-10.66-1.68c.51-.29-2.44-.2-.69-.61,1.88-.21,0,.36,1.82.4l-1.92.63c-.43-.16-2.66.18-1.85-.23C164.5,324.62,165.36,324.74,166.25,324.62ZM227,332.13c-1.61-.05-1.46.48-3.4.38C224.55,332.08,227.39,331.62,227,332.13Zm-39.94-6.65a32.94,32.94,0,0,1-4.15.53A11.77,11.77,0,0,1,187.06,325.48Zm102.23,14.69a6.51,6.51,0,0,1-2.63.29C286.67,340.13,288.31,339.87,289.29,340.17ZM198.2,326.08a30,30,0,0,1-4.12.15C195.27,325.78,198.33,325.79,198.2,326.08Zm37.08,5.33c1.76-.22,3.5-.21,5.24-.28C238.91,331.63,234.41,332.13,235.28,331.41Zm-54.1-10.52c-1.55.48.16.09.72.27-.92.44-1.74,0-2.65.37,1.21.34,2.49,0,3.72.11.31.12,1.67.55-.43.65.81-.41-1.44,0-1.85-.23-1.56.68-3,.23-4.55.65a8.68,8.68,0,0,0-3.72-.12c-.63.21.81.2.34.39-3.31-.11-1.38-.67.15-1.55.84.05.2.26.33.39.65-.21,1.24.06,1.88-.11-.67-.07-1.06-.17-1.09-.31,1.4-.43,2.38-.23,1.93-.63a6.8,6.8,0,0,1,2.62,0c-.52.24-1.54.26-1.16.38C178.68,321,179.93,320.92,181.18,320.89Zm11,1.76c0-.31,1.29-.34,2.3-.56.62.44,2.79-.12,4.49-.1-1.77.68,1.63-.15,2.22.3-1.66.35-3.25.12-4.9.39-3,.79-2.26,1.7-5.41,1.72C193.11,323.88,195.78,322.6,192.21,322.65Zm109.92,16.1c.29.18-2,.53-.45.62,2.06-.39,1.1-.58,2-.89.6.14,1.25,0,1.85.13-1.21.72-2.73,1-3.93,1.62a27.93,27.93,0,0,0-5.91-.46A30.8,30.8,0,0,1,302.13,338.75Zm-57.82-8.12a6.65,6.65,0,0,1-3.42.55C242.05,330.91,243.18,330.79,244.31,330.63Zm-71.72-9.76c-.69.24.95.24-.05.52C170.73,321.68,170.81,320.92,172.59,320.87Zm26.67,2.21-3.09,1a12.35,12.35,0,0,1-1.49,0C194.35,323.69,197.51,323,199.26,323.08Zm48,7.46c1,.12,1.89-.06,1.08.33-.73-.1-1.51.26-2.24,0Zm-25.19-4.72c2,.21-1.54.8-2.69.69C220.33,326.1,221.19,326.23,222.11,325.82Zm-38-4.56c.76-.09,2.26.12,1.07.49C184.23,321.65,183.34,321.55,184.13,321.26Zm65.49,8.57c-.21.07-.4.14,0,.17a5.72,5.72,0,0,1,1.9-.25,11.19,11.19,0,0,1-3.79.5A6.45,6.45,0,0,1,249.62,329.83Zm-.93-1.54c-1.22-.19-2.55.53-3.77.32C246,328.23,249,327.83,248.69,328.29Zm-76.51-11c-.72.45,1.54,0,1.15-.21,1,.1.56.34.31.57-1.69.09-1.35.29-3.77.4A5.81,5.81,0,0,1,172.18,317.32Zm155.43,20.25a9.09,9.09,0,0,1-3,.2A5.05,5.05,0,0,1,327.61,337.57ZM245.47,324a4.66,4.66,0,0,1-2.63.14A4.75,4.75,0,0,1,245.47,324Zm32.63,4.8c1.71.13-.45.77-1.56.46C277.63,328.91,276.72,328.89,278.1,328.76Zm-26.27-4.92c1.69-.5,5.29-.71,5.62-.23-1.57-.36-3.27.35-4.91.5C253.21,323.82,251.5,324.17,251.83,323.84Zm94.87,13a19,19,0,0,1-4.87.19C343.42,336.75,346.4,336.42,346.7,336.87Zm-141-21.5c-.77-.05-3.46.17-3-.22C203.53,314.93,206.18,315,205.69,315.37Zm31.22,1.91c1.21.33,2.49,0,3.72.19-1.42.44-2.75.07-4.21.8-.73-.18-1.51.1-2.22-.15A14.9,14.9,0,0,0,236.91,317.28Zm53.25,7.57c1.42.15,2,.36.28.75-1.16,0-1.49-.4-3.34-.17C288.16,324.94,289.12,325.24,290.16,324.85Zm-57.3-11.31a15.38,15.38,0,0,1-4.22.8A10.39,10.39,0,0,1,232.86,313.54Zm31.55,5.19a4.74,4.74,0,0,1-2.63.12A4.74,4.74,0,0,1,264.41,318.73Zm-10.93-2.37a10.06,10.06,0,0,1-4.17.45A20.62,20.62,0,0,1,253.48,316.36Zm9.63.77c2,.19,4.05-.45,6.05-.47-1.31.72-3.65.65-6.48.93-.4.15-.22.32-1.14.17C261.68,317.58,262.09,317.38,263.11,317.13Zm31.69,3.72a27.51,27.51,0,0,1-5.7.67A24,24,0,0,1,294.8,320.85ZM241.65,312a17.94,17.94,0,0,1-3.05.44c.75-.35-.14-.56.86-.93C241.05,311.61,240.3,311.9,241.65,312Zm-6.1.88c-.57-.38-1.5-.11-3-.26,2.6-.31,4.71-1.43,6.09-.87A7.12,7.12,0,0,0,235.55,312.89Zm6.38-.13c-.74-.29-3.49.42-3-.09a14.71,14.71,0,0,1,4.13-.1c-.74.21-.54.33.33.4a15.83,15.83,0,0,1-3.81.5C240.18,313.25,242.58,313,241.93,312.76Zm25.88,2.81c-1-.1-2.05.3-3,.06C265.62,315.29,268.29,315.28,267.81,315.57Zm-4.55.35c1.14-.28-1.11-.31.46-.63C265.36,315.32,264.7,315.94,263.26,315.92Zm8.5,1a18.71,18.71,0,0,1,3.06-.58,10.23,10.23,0,0,0,3,.12,9.42,9.42,0,0,0-2.33.69c-.64-.28-1.13-.38-2.64.11C272.16,317.14,271.78,317,271.76,316.89Zm58.7,8.32c-1.1.45-2.71.39-2.72.77l-.73-.12a1.53,1.53,0,0,1-.76.05A8.46,8.46,0,0,1,330.46,325.21Zm47.14,9.46c1,.09,1.88-.17,1.85.18C378.39,335.25,376.54,335,377.6,334.67ZM245.39,312a15.21,15.21,0,0,1-3.37,0C243,311.53,245.74,311.85,245.39,312Zm77.19,10.8a16.25,16.25,0,0,1-4.53.31A16.25,16.25,0,0,1,322.58,322.83Zm-62.5-11.43c-.79,0-.42.16-1.17.34-1.6.05-1.64-.46-3.77.13-.19.3,2.23,0,1.07.5a5.57,5.57,0,0,1-3-.25C255.33,311.44,259.37,310.93,260.08,311.4Zm51.6,9.09c1.62,0,3.33-.6,4.9-.24-1.43.43-2.8.38-4.22.71C311.42,320.85,311.09,320.7,311.68,320.49Zm-28.82-5.56a8.26,8.26,0,0,1,2.22.17C284,315.58,281.73,315.28,282.86,314.93Zm-17.11-3.88a1.47,1.47,0,0,0-.81.4,8.37,8.37,0,0,1-2.23-.17A7.54,7.54,0,0,1,265.75,311.05Zm24.64,3.47c-1.13.12-2.34.76-3.43.52A11.57,11.57,0,0,1,290.39,314.52Zm10.78.71c-1.53.51-2,0-2.71.61-.67-.1-1-.22-1.08-.36A7.6,7.6,0,0,1,301.17,315.23Zm-8.3.38c1.46.26,3.07-.54,4.51-.13C296,316.06,292.84,316,292.87,315.61Zm-21.95-3.94a4.58,4.58,0,0,1-3,.06A8.48,8.48,0,0,1,270.92,311.67Zm24.72,2.82a11.09,11.09,0,0,1-3,.37C292.64,314.46,294.58,314.26,295.64,314.49Zm4.63-1c-2,.5-2.84.58-3.14,1.06-1.37.1-.9-.22-1.44-.41a18.7,18.7,0,0,1,3.07-.55c-.49-.05-1.52.06-1.1-.18a14.08,14.08,0,0,1,4.86.1c-.42.17-.22.3-1.19.51C299.83,313.93,300.8,313.67,300.27,313.5Zm5.55.57a41.89,41.89,0,0,1-7.59.67C298.67,313.91,303.27,314,305.82,314.07Zm-35.7-5c-1.92.3-3.79.24-5.67.35A19.83,19.83,0,0,1,270.12,309.09Zm11,1.71c-.16.24-.34.69-1.94.58A2.78,2.78,0,0,1,281.14,310.8ZM278.75,309c2.07,0-1.56.51-.46.63s2.07-.51,3-.23a28.29,28.29,0,0,1-6.08.63C275.78,309.65,277.83,309.65,278.75,309Zm29.95,5.87c2.53-.7,5.09-.08,4.06.5A10.31,10.31,0,0,0,308.7,314.9Zm.53-1.14-1.94.55c-.37-.09-1.12-.15-.72-.29C307.42,314.22,308.42,313.34,309.23,313.76Zm-14.58-3.12c1.09.13.14.39-.46.63-.49-.08-1,.05-1.49-.07Zm-6.17-1.51c.81.25.73.57-.5,1C286.23,309.94,287.06,309.28,288.48,309.13Zm19,3.81c1.16-.47,3-.12,3,.14C308.54,313.6,309.1,313.09,307.47,312.94Zm-12.54-4.36a8.24,8.24,0,0,0,1.86.13c-1.87.33-2.22,0-3.46.66-.54-.51-1.86,0-3.35-.18C291.65,308.73,293.24,309,294.93,308.58Zm10.49.15c-2.33-.43-6.84.65-7.9.1C299.74,308.72,305.82,307.78,305.42,308.73Zm-2.28.15c-.76.23.51.31-.82.57a9.59,9.59,0,0,1-1.86-.13C302.15,309.08,301.5,308.84,303.14,308.88Zm13.3-1.13c.83.27,1.77-.19,2.62.08a11.35,11.35,0,0,1-3.07.37C316.47,308,316.06,307.91,316.44,307.75Zm33.25,3.6c-1.32.11-5.24.72-4.12,0C346.66,311.63,349.84,311,349.69,311.35Zm37.19,6.92c1.72.16-.47.78-1.59.58C386.38,318.64,385.47,318.51,386.88,318.27ZM348.61,311a6.16,6.16,0,0,1-2.63.07c1-.22,1-.78,2-.71C347.61,310.59,348.52,310.76,348.61,311Zm1.26-.83c1.9.13.12.84-1.23.66C348.7,310.61,348.31,310.43,349.87,310.15ZM334.93,307c1.07.43,2.3-.27,3.37.07a40.3,40.3,0,0,1-5.72.57Zm15,2.48-1.57.43-1.1-.2A6.31,6.31,0,0,1,350,309.46Zm6.56,1.34c2-.55,1.64.19,3.73.13C359,311.14,356.59,311.12,356.53,310.8Zm4.85.15,1.46.26c-.84.35-3.54.62-3,.17A1.87,1.87,0,0,0,361.38,311ZM399,317.56a13.26,13.26,0,0,1-2.6-.14c5.31-.35,10.6-.68,15.84-.54-1.62.7-3-.16-4.57.38,1,.16,1.89,0,1.07.38-1.67.08-.92-.32-2.55-.49-1.7.51-3.23-.07-4.95.48a10.17,10.17,0,0,1,3,.21c-.8.27-1.52.09-2.32.44-1.35-.06.41-.68-1.43-.44-1.13.24,1.11.34-.47.61a8,8,0,0,1-2.24-.07C397.86,318.12,399.44,317.8,399,317.56Zm-42.28-8c1.69.37,3.52-.13,5.24,0-1,.4.25.61-2,.87-1.77-.13-.35-.43-.65-.64a26.1,26.1,0,0,0-3.45.45C354.52,310.17,355.51,309.89,356.71,309.6Zm-13.1-2.85a9,9,0,0,1-3.84.56C341.05,307.1,342.38,306.55,343.61,306.75ZM371,312.12l-1.56.43-1.1-.2A5,5,0,0,1,371,312.12Zm11.67-2.58a5,5,0,0,1,1.88,0c-2.79.57-4.1-.45-5.56-.52l-2,.51a34.51,34.51,0,0,0-8.66.19,5.12,5.12,0,0,1-2.4,1c-.11-.65-1.44.31-3,0a39.53,39.53,0,0,0,5.87-1.61c2.34.61,6.79-.44,9.87-.65-.37.18-2.45.45-1.6.58,1.43-.31,2.8-.28,4.24-.62-.49-.06-1.53,0-1.1-.2,1.36.22,4.81-.49,4.88,0-1.83-.14-4.76.64-3.16,1,.27-.63,5.2-.51,5.29-.24C385.81,309,381.76,309,382.62,309.54Zm1.65-.93a6.91,6.91,0,0,1,2.72-.55c-.73.31,1.7,0,2.21.25A22.89,22.89,0,0,1,384.27,308.61Zm-40.69-1.68a43.32,43.32,0,0,1,5.67-.24C347.44,307,344.09,307.38,343.58,306.93Zm15.08,2.13c-.74-.05-1.54.28-2.25,0C357,308.54,359.38,308.8,358.66,309.06Zm7.15-.14c-.95.29-3.8.57-3.39.1C363.54,309.1,364.7,308.84,365.81,308.92Zm-13.14-2.5c0,.25-2,.56-3.06.34A8.36,8.36,0,0,1,352.67,306.42ZM416.34,317c-.35.4-2.28.17-2,.69C412.5,317.48,415.23,316.75,416.34,317Zm4.16-.22c-.05.37-2,.33-3.13.78l-1.09-.21A11.64,11.64,0,0,1,420.5,316.73ZM376,308.47c-.93.11-3.81.55-3.4.07A25.84,25.84,0,0,1,376,308.47Zm-6.79-2.3a4.84,4.84,0,0,1-2.66.24A4.93,4.93,0,0,1,369.23,306.17Zm22.17,2.55c1,0,2-.13,3-.14a7.15,7.15,0,0,1-3.11.65C392,309,390.37,308.93,391.4,308.72Zm7.82.41a7.64,7.64,0,0,0,1.85.17l-.79.21c.2.05.38.1,0,.17-2-.3-.58.39-1.6.58a10.33,10.33,0,0,1-2.61-.13A26.55,26.55,0,0,0,399.22,309.13Zm-4.29-1.34c.47.12,1.48.22,1.06.38-1.74-.08-3.59.5-5.27.07C392.7,307.88,393.73,308.21,394.93,307.79Zm108.45,22c1.31.2.31.45-.88.7a7.25,7.25,0,0,0-1.47-.14C501,330.15,502.38,329.82,503.38,329.81ZM437.55,315.9a10.2,10.2,0,0,1,3.74.05c-1.21.35-1.39,1-3.49.71C439,316.27,439.79,316,437.55,315.9ZM407.88,309c-1.44.07-1.74-.21-1.43-.45-2.72.53-7.34.56-8.64,0a39.05,39.05,0,0,0,9.11-.58c-.52.25-.06.45.65.65.19-.38.33-.41,2-.51.83.1.18.27.3.41.85-.5.85-.19,2.3-.28-1-.3,1.32-.49,2.3-.27,0,.29-1.64.28-2.75.72C409.08,308.68,408.93,308.44,407.88,309Zm-27.61-6.08c1.94.27,3.49-.62,4.63-.71,1.56.36-.79.41-1.65.92-.7-.31-1.53.11-2.31.27C380,303.28,379.67,303.12,380.27,302.92Zm27.1,4.57c1.62.08,3.26,0,4.88,0a21.63,21.63,0,0,1-3.45.41C409.52,307.77,405.74,308,407.37,307.49Zm-13.68-3.81c0,.23-1.7.74-2.71.55C391.88,304.09,392.84,303.54,393.69,303.68Zm-2-1.61c-.93.36-1.77.18-2.72.55,1,.16,1.9,0,1.08.37-1.15-.05-4.28.27-4.11-.24A19.16,19.16,0,0,1,391.69,302.07Zm24.62,5.87c.62.39,3.27-.34,2.62.17C417.85,308.24,415.11,308.5,416.31,307.94Zm-7.42-2.81c-1.54.19-3,.21-4.58.37C404.47,305.26,408.84,304.71,408.89,305.13Zm-13.51-2.54a1.39,1.39,0,0,0-.81.37c-.89-.13-3.74.1-3.34-.27C392.57,302.87,394.05,302.28,395.38,302.59Zm36.87,4.65c-2.38.33-6.14.46-9.15.65.53.18,1.43.35.28.58-.36-.7-1.58-.12-3.7-.38,1.45-.39,2.57-.43,2.05-1C424.1,307.94,428.67,307,432.25,307.24Zm95.61,22.17c-1.23-.12-2.59.41-3.77,0C525.15,329.3,528.15,329,527.86,329.41ZM464.38,315a3.29,3.29,0,0,0,2.27-.05c1.41.49-2.61,1.19-4.69,1C464.25,315.44,464.13,315.42,464.38,315Zm-61.45-12.53c-2.3.3-4.54.19-6.82.3l1.18-.3C399.15,302.56,401.07,302.28,402.93,302.42Zm35.27,7.42c-1.52,0-5,.31-5.24-.16C434.45,309.84,438,309.25,438.2,309.84Zm-3.49-1.58c2,.31,4-.09,6,.14a25.28,25.28,0,0,1-7.18.16A1.34,1.34,0,0,0,434.71,308.26ZM406,302.11c-.64.17.8.25.31.41-1-.13-2,.23-3,0A6.43,6.43,0,0,1,406,302.11Zm7.16-.07a10.24,10.24,0,0,1-3.81.35A17.16,17.16,0,0,1,413.15,302Zm22.13,5.1c2.22-.47,2.57-.06,4.09.29-.72.16-1.14.32-1.22.46l-.72-.15C438.2,307.3,437.16,307.19,435.28,307.14ZM409.56,301c2,0,4.09-.47,6-.1-2,.17-1.43.7-3.14.82-2-.09.16-.79-1.41-.62-.59.22.34.38-1.23.65C408.77,301.56,409.35,301.28,409.56,301Zm8.9.82a3.21,3.21,0,0,1-1.6.56c-.95-.38-2,.05-3-.22l.79-.2C415.76,302.26,416.58,301.82,418.46,301.84Zm29.66,5c-1.78,0-6.83,1-6.06.2C444,307.38,446.17,306.54,448.12,306.88Zm11.12,1a11.52,11.52,0,0,1-3.06.28C456.22,307.88,458.18,307.62,459.24,307.86Zm.54-.95c-2.3-.11-8.16.74-7.87-.16C454.23,307.11,458.72,306.44,459.78,306.91Zm12.87,1.82a8.49,8.49,0,0,1-3.06.24C469.63,308.7,471.57,308.58,472.65,308.73Zm-2.42-1.22c2,.68,4.27,0,6.36.29-1.34.55-5.49.21-8,.26C469.72,307.86,468.81,307.71,470.23,307.51Zm.82-.36c2.15.41,2.54-.69,5-.36-2.1.34-1.08.23-2,.64C472.9,307.48,469.84,307.66,471.05,307.15Zm12.84-.11a9,9,0,0,1-3.46.33C480.53,307.06,482.78,306.63,483.89,307Zm-24.24-5.82a10.46,10.46,0,0,1-3.82.3A16.63,16.63,0,0,1,459.65,301.22Zm-.7-.32c-.83.29-3.52.3-3-.07C456.92,301,458,300.49,459,300.9Zm5.52.79c-.67.19,1,.32.67.5a5,5,0,0,1-2.67.14C463.71,302.15,462.49,301.61,464.47,301.69Zm-.06-1.78c-.19.14-1.71.46-1.27.79a5.73,5.73,0,0,1,2.61.2c-1.94.28-3.93.82-5.76.56C462.93,301,460.89,299.6,464.41,299.91Zm33.21,8.27c-.74.39-3.26.32-2.63,0C495.85,308.27,496.8,307.85,497.62,308.18Zm-27.74-7.12a4.92,4.92,0,0,1-2.67.15A4.91,4.91,0,0,1,469.88,301.06Zm23.55,5.35c1.79-.12,5.15-.32,5.63.13,1.41-.32,3.94.09,4.24-.52l1.45.31c-1,.34-1.9.14-2,.47-2.14-.17-3.26-.15-3.85.42-1.59-.13-.26-.34-.66-.5l-2,.47C494.5,306.74,496.42,306.45,493.43,306.41Zm13.53.21c2,.46-2.66.93-3.88.59.47-.15.07-.28.46-.43C506,306.66,505.18,307.35,507,306.62Zm4.28-.66c1.81.3-.15.63-1.32,1-.6-.12-1.29.16-1.88-.06C509.51,306.26,510.22,306.6,511.24,306Zm9.09,1.86a8.82,8.82,0,0,1-3.42.12A7.65,7.65,0,0,1,520.33,307.82Zm105,20.11c.94-.16,3.8-.29,3.37.14-1-.22-2.32.08-2.34.3C625.68,328.22,625.31,328.07,625.3,327.93ZM541,306.25c2.11.48-3.81,1.18-3.49.46C539.14,306.92,539,306.34,541,306.25Zm90.33,21.6c2-.14,6.12-.39,6.74.27-2.67-.29-1.24.41-2.41.64-1.36-.33-.76-.63-.92-.95C633.5,328.21,631.3,328.33,631.36,327.85Zm11.69.09c-1-.09-2,.14-3-.05C639.91,327.36,644.51,327.54,643.05,327.94Zm-101.8-28.57a11.78,11.78,0,0,1-3.79,0A8.52,8.52,0,0,1,541.25,299.37Zm6.93-.58c1.11-.67,1.82,0,3,0-.9-.44,1-.78,1.72-1,1.79.35-2.38.76-.6,1.11.43-.14.24-.28,1.23-.44.55,0,2.89.26,2.17.49-2.11-.27-10.38,1.4-8.34.09-1.53,0-5.11.43-5.28-.12C543.06,298.51,547.38,298.37,548.18,298.79Zm2.44-.87a35.89,35.89,0,0,1-5.73.31A20.66,20.66,0,0,1,550.62,297.92ZM668.2,327.05c1.59.26,5.38-.4,5.63.23C672.07,327.19,668.63,327.7,668.2,327.05ZM557.52,297.51c.47.14,1.47.29,1.05.43-1.84-.27-2.66-.17-3.46.27C554,297.74,556.11,297.67,557.52,297.51Zm7,.95c.81.32,1.81-.19,2.6.26C566,298.9,563.34,298.8,564.54,298.46Zm-2.66-1.88c.94.18,1.27.35.66.52a4.33,4.33,0,0,0-1.48-.18,3.3,3.3,0,0,1-1.16.08C560.56,296.86,561.22,296.73,561.88,296.58Zm125.18,30.81c-.42.13-.25.28-1.22.39a10.54,10.54,0,0,0-2.58-.32A9.22,9.22,0,0,1,687.06,327.39ZM578.23,298.31c-.28.17,1.64.19,1.83.26.49-.14.09-.28.47-.42,2-.07,2.59.4,1,.76-2-.07-4.06,0-6-.18C577,298.55,577.55,298.32,578.23,298.31Zm115.45,29.94-1.43-.38C693.5,327.51,695.49,328,693.68,328.25ZM588,298.67a9,9,0,0,1,3.39.09,9.25,9.25,0,0,1-3.43.08C588.2,298.79,588.39,298.73,588,298.67Zm122.55,28.69a20,20,0,0,1,2.57.32c-.58.09.25.61-1.23.39.82-.2,0-.43-1.07-.28q.43.27-.12.51c-.71-.19-1.54.08-2.22-.24C710.44,327.86,708.63,327.56,710.57,327.36Zm-111-29.51c1.62.17,5.33-.16,5.63.26a32.92,32.92,0,0,0-3.43.08c.59.18,1.24.09,1.84.26-1.08.15-2.74.26-2.77.59C600.07,298.64,599.68,298.24,599.57,297.85Zm118.52,29.77c-.6.17-.23.38-1.27.54C716,327.89,716.34,327.29,718.09,327.62ZM607.44,298.29c1.78.38,1.55.75.9,1.11a6.57,6.57,0,0,0-1.47-.18C607.77,298.91,605.48,298.59,607.44,298.29Zm113.94,29.89a4.89,4.89,0,0,1-2.66,0A4.89,4.89,0,0,1,721.38,328.18Zm-109-30.08a42.43,42.43,0,0,1-6.08-.07c2.18-.1,2.64-.23,4.23-.21-.23.08-.15.17.33.26A2.9,2.9,0,0,1,612.43,298.1Zm3,.38c-.47.14.34.29.28.43a24.5,24.5,0,0,1-6.46,0c1.25-.21.41-.45,1.66-.65C612.36,298.41,613.91,298.29,615.39,298.48ZM730.93,328c-1.43.2-2.5.41-2.07.68-1.07-.27-2.27,0-3.36-.22,2.24-.46-1-.37.16-.67C727.34,328.15,729.21,327.75,730.93,328ZM618.24,297.59c.77.15.35.29,1,.44.4-.08.18-.17.43-.25,1.61.22.64.4-.51.59a4.28,4.28,0,0,0-1.48-.2c.36.12-.23.23-.83.33l-1.08-.27C617.93,297.89,617.56,298,618.24,297.59Zm5.06,1.26a25.19,25.19,0,0,1,3.79,0C625.73,299.31,623.29,299.35,623.3,298.85Zm8.49-.56a15.16,15.16,0,0,1,3.43,0c-1.1.39-2.05.06-3.08.12.2.09.7.18.33.26C632,298.52,631.86,298.41,631.79,298.29Zm8.58.72c-1.22-.19-2.55.11-3.75-.22C637.71,298.58,640.68,298.6,640.37,299Zm-.79.16a2.84,2.84,0,0,0,1.15-.07c.93.18,1.27.36.65.52-.61-.11-1.26,0-1.88-.11C640,299.4,639.24,299.28,639.58,299.17Zm8.7.21a20.18,20.18,0,0,1-6.1.08C644.28,299.11,646.21,299.52,648.28,299.38Zm1.34-.92c-.86.59-3.23.47-5,.36A14.21,14.21,0,0,1,649.62,298.46Zm9.23,1.24c.36.15.12.29,1,.44a11.59,11.59,0,0,1-4.94,0C656.92,300.15,658.76,299.93,658.85,299.7ZM681.5,299c-.94.21,1.17.06,1.44.38-.73.25-3.22-.1-2.6-.33C681.12,299.24,680.8,298.9,681.5,299Zm156.35,5.78a16,16,0,0,1,2.94.54,23.19,23.19,0,0,1-4.68.19l-1.06-.33C837.23,305.17,836.87,305.22,837.85,304.81Zm12.37,1.27c-1.54-.52-3.91,0-3.29-.65C847.79,305.68,850.68,305.65,850.22,306.08Zm141.71,36.38c-3.63.25,3.64.51-.31,1a5.38,5.38,0,0,0-2.5-.67A3.29,3.29,0,0,1,991.93,342.46Zm-4.06.62a4.37,4.37,0,0,0-1.45-.31c-.58.12,0,.79-1.7.52-.24-.22.74-.33-.2-.62,2,.12,2-.6,4-.46C988.88,342.56,989.57,342.94,987.87,343.08ZM887.52,307.79a13.82,13.82,0,0,1,3.42.2c-.05.29-1.66.07-2.8.36C886.88,308.08,888.22,308,887.52,307.79Zm110.06,35.13c1,.38.24.59.48.9-.94-.26-2.1.15-3-.29C996.24,343.21,996.45,343.29,997.58,342.92Zm-102.2-34.23c-1.81-.31-1.47.29-3.07-.08C892,308.39,896,308.18,895.38,308.69Zm103.3,34.43a4.33,4.33,0,0,1,2.25.21,3,3,0,0,1-1.61.19C999.73,343.45,999.2,343.28,998.68,343.12Zm8.12-26.95c-1.3-.4-2.85,0-4.17-.33C1003.92,315.52,1007,315.75,1006.8,316.17Zm6.09.49a49.19,49.19,0,0,1-5.63-.7A13.34,13.34,0,0,1,1012.89,316.66Zm2.77-.11-1.62.16-1-.37A6.08,6.08,0,0,1,1015.66,316.55ZM1133.18,344c1.12.45.18.58-1,.72-1.84,0-4.47-.37-7.32-.35-.35-.16-1-.36-.64-.43C1126.15,343.8,1130.14,343.92,1133.18,344Zm10.13,1.38c.58.26.88.47.57.6-2.53-.27-5.13-.35-7.59-.76C1138.64,345.25,1140.94,345.41,1143.31,345.41Zm-58.48-22.7c-.38.29-3.29.27-4.68-.09A22.05,22.05,0,0,1,1084.83,322.71Zm70,23.52c-3.36,0-6.21-.26-8,.22l-1.38-.55C1147.78,346,1150.68,345.32,1154.82,346.23Zm-42.74-22.75a10,10,0,0,1,2,0c1.81.64-1.48.61,1.11,1.34-1.41-.1-2.92.1-4.17-.45C1113.44,324.7,1114.29,324.22,1112.08,323.48Zm70.36,26.94c1,.37-.28.41-.24.65a10.42,10.42,0,0,1-2.53-.63A21.39,21.39,0,0,0,1182.44,350.42Zm-12.94-8.84a5.28,5.28,0,0,0,2.48-.32c1.55.39.2.37.57.59a2.64,2.64,0,0,1,1.09.25c-1.89-.18-3.49-.48-2.82.19C1169.9,342.16,1169.34,341.79,1169.5,341.58Zm-12.59-10c-.79-.37-1.84,0-2.6-.47C1155.11,330.87,1157.59,331.37,1156.91,331.6Zm10.52,1.53a21,21,0,0,1-5.72-.58C1163.59,332.79,1165.65,332.58,1167.43,333.13Zm7.45,1.25a6,6,0,0,1-3-.44A7.67,7.67,0,0,1,1174.88,334.38Zm-.16-1.74c.9.41,1.29.46,1.5.22,1.61.51-1.84.37-2.37,0A1.58,1.58,0,0,0,1174.72,332.64Zm66,13.3c-.12.3-2.09.19-3.19,0A5.26,5.26,0,0,1,1240.76,345.94Z"/><path class="cls-9" d="M351.12,304.21c-.48.19,1,0,.34.23,4.3-1.06,8.37-.66,12.6-1.29a96.84,96.84,0,0,0-10.59.42c-.39.13.34.2.71.3C353.16,304,352.12,304.22,351.12,304.21Z"/><path class="cls-9" d="M94.36,359.05a22.81,22.81,0,0,0,3.74-.67A12.4,12.4,0,0,0,94.36,359.05Z"/><path class="cls-9" d="M161.78,348.68c-1,.25-.77.37-1.16.56a6.49,6.49,0,0,0,1.89-.48c.08.11.19.21.71.27C164.17,348.6,162.75,348.73,161.78,348.68Z"/><path class="cls-9" d="M106.23,342.81c-1.54.31,2.36-.26,2.21.22.66-.29.27-.44.41-.66C107.22,342.33,107.87,342.85,106.23,342.81Z"/><path class="cls-9" d="M130.58,344.88c-.9.28-.92.46,0,.52,0-.23.92-.43,1.89-.49C133.23,344.58,131,345,130.58,344.88Z"/><path class="cls-9" d="M126.25,343.36c-.13-.12.5-.34-.34-.38-1,.3-1.41.52-1.54.71.73.06,1.51-.42,2.25-.29C127,343.25,126.46,343.29,126.25,343.36Z"/><path class="cls-9" d="M179.51,349.35c1.31.25.94-.32,1.53-.51,1.07-.31.1.26,1.46.19a17.53,17.53,0,0,1,6-.81c.37-.21.42-.39.79-.6a37.2,37.2,0,0,1-7.86.92C180.57,349,179.54,349.05,179.51,349.35Z"/><path class="cls-9" d="M122.66,341.76c4.58-.7,7.61-.95,12.05-2-.55-.11-1.61.12-1.11-.13-1.64.05-1,.26-2.64.59.32-.47-5.65.62-4.1.08C125.93,340.08,123.41,341.24,122.66,341.76Z"/><path class="cls-9" d="M199.06,350.15c1.1.23,5.45-.24,7.85-.67Z"/><path class="cls-9" d="M72.91,334.09c0,.31-1.27.33-2.29.84a9.66,9.66,0,0,0,3.41-.74C74.43,334,73.4,334.2,72.91,334.09Z"/><path class="cls-9" d="M132.42,340.54a22.81,22.81,0,0,0,4.15-.75C135.22,339.55,133.8,340.28,132.42,340.54Z"/><path class="cls-9" d="M194.66,346.05c-1.06.25.15.27-.42.47a13.35,13.35,0,0,0,2.63-.34C197.57,345.86,195.17,346.47,194.66,346.05Z"/><path class="cls-9" d="M111.39,333.4c.36-.13-.15-.15-.36-.21.78-.33,1.51-.22,2.29-.62a12.28,12.28,0,0,0-4.53.73C110.23,333.31,110.75,333,111.39,333.4Z"/><path class="cls-9" d="M153.13,333.34c2-.46,1.66,0,3.75-.26a12,12,0,0,1,1.57-.87C156.76,332.64,153.63,333,153.13,333.34Z"/><path class="cls-9" d="M236.89,343.38c-.66-.26,2-.32,1.55-.65-.84-.17-1.78.42-2.61.14.32.33-1.74.68-.12,1a11.43,11.43,0,0,1,3-.44C239.54,343.18,237.32,343.47,236.89,343.38Z"/><path class="cls-9" d="M243.6,343.14c1.72.13,3.54-.68,5.23-.28,1.23-.43-1-.14-.33-.4C246.87,342.7,245.25,342.79,243.6,343.14Z"/><path class="cls-9" d="M251.52,342c-.69-.08-.29-.25-1.07-.33a30,30,0,0,1-6.37.47c.31.69,4-.2,5.54.29a6.14,6.14,0,0,1,3.73-.16,36.93,36.93,0,0,0,4.2-1c-.74,0-1.49,0-2.23,0-1.06.24.15.28-.43.47a11.06,11.06,0,0,0-1.13.18c-.41-.13.9-.42-.7-.45C252.07,341.66,251.67,341.79,251.52,342Z"/><path class="cls-9" d="M149.53,319.48c-.37.15.15.11.37,0,.56.05,1.11.1.72.26a6.68,6.68,0,0,0,1.92-.48C151.54,319.29,150.53,319.44,149.53,319.48Z"/><path class="cls-9" d="M186,317.82c-.64.28,4.88.14,6.79-.51-.55,0-3,.52-2.25,0C189,317.29,187.44,318.11,186,317.82Z"/><path class="cls-9" d="M205.12,317.22c1.56,0,2.23.57,4.49-.09-.37-.64-4.15.3-3.68-.5C204.22,317,206.83,316.88,205.12,317.22Z"/><path class="cls-9" d="M278,323.65c-.83.41,1.42,0,1.85.12.75-.19.38-.4,1.17-.35.4-.09.22-.13,0-.17l-.73-.11c.4.09-1.9.77-1.16.34C278.43,323.43,278.78,323.73,278,323.65Z"/><path class="cls-9" d="M247.76,314.13c0,.31,3.23-.06,4.5-.05-.48.55,2.57.64,3.65.7,0-.47-1-.87-1.71-1.3-.36.89-2.39.08-4.9.34C249.14,314.05,248.74,314.17,247.76,314.13Z"/><path class="cls-9" d="M260,314.72c.48.31,4.26-.13,6-.12,1.17-.4-2.63.06-1.45-.4A16.68,16.68,0,0,1,260,314.72Z"/><path class="cls-9" d="M256.43,313.64c-1.55.33.13.28.73.11.65.09.67.23.33.4.62,0,1.26-.11,1.88-.06-.68-.09-1.15-.62,1.17-.34.42-.18-.6-.24-1.08-.35A7.51,7.51,0,0,1,256.43,313.64Z"/><path class="cls-9" d="M275.67,312.59c-.62,0-1.26.11-1.88.05-1.47.32.26.38-1.21.69A24.41,24.41,0,0,0,275.67,312.59Z"/><path class="cls-9" d="M292.82,307.53c-.17.32-.54.13-1.57.45,1.43.09-.89.47,1.06.52l1.18-.34c-.7-.17-1.33-.38.8-.39C295.2,307.47,293.12,307.82,292.82,307.53Z"/><path class="cls-9" d="M320,311.68c-1,0-.21.24.37.06.23.16-.15.35-.83.57,1.22,0,2.9-.7,1.61-.79A2.91,2.91,0,0,1,320,311.68Z"/><path class="cls-9" d="M362.3,319.75c.49.05.6-.07.4-.11,1.17-.34,2.2.32,3.41-.27-1.2-.36-2.51,0-3.75,0C362,319.54,362.82,319.61,362.3,319.75Z"/><path class="cls-9" d="M333.44,304.26a12.53,12.53,0,0,0-4.52.1c1.7.36,3.49.11,5.2.37.89-.65,3.46-.47,5.39-.81C339.13,304,333.92,303.75,333.44,304.26Z"/><path class="cls-9" d="M338.28,304.58c2-.05,4.1-.59,6.07-.34.49-1,5.94-.12,8.76-.74,0-.14-.77-.24-.32-.41-1.65.17-3.36.7-4.92.19a51.9,51.9,0,0,1-7.21.49c-.42.17.6.25,1.08.36C340.57,304.36,339.49,304.11,338.28,304.58Z"/><path class="cls-9" d="M334.4,302.84c.43.88,9.08.32,10.93-.18C341.81,302.8,336.6,303.49,334.4,302.84Z"/><path class="cls-9" d="M362.7,302.2c1.5,0,3,0,4.52-.08C367.25,301.77,364,302,362.7,302.2Z"/><path class="cls-9" d="M383.13,301.52a94.82,94.82,0,0,0,11.71-.27c-1.52-.41-3.19.21-3.71-.34-.37.63-3.08,0-4.61.54-1.39-.17,1.17-.65-1-.55C386.11,301.32,385,301.47,383.13,301.52Z"/><path class="cls-9" d="M382.5,300.7c-.05.47,3.26-.07,4.53,0,.84-.36-1.44,0-1.83-.35A4.36,4.36,0,0,1,382.5,300.7Z"/><path class="cls-9" d="M395.6,301.22a63.58,63.58,0,0,0,7.92-.1C402.44,300.11,398.11,300.93,395.6,301.22Z"/><path class="cls-9" d="M436.44,300.3c1.12,0,2.24-.1,4.18-.23l-1.09-.22C438.45,300.3,437.51,300,436.44,300.3Z"/><path class="cls-9" d="M458.28,298.29l-2.36.59c1.92.06,2-.63,4.21-.4C461,298.23,458.71,298.4,458.28,298.29Z"/><path class="cls-9" d="M480.22,298.12c.54.78,2.32-.48,4.1.33a1.54,1.54,0,0,1,.83-.36C483.57,297.74,481.86,298.14,480.22,298.12Z"/><path class="cls-9" d="M516.32,297.16c-1-.09-.23.23.36.08.64.2-.33.4-.49.6,1.26,0,2.6-.39,3.79,0,1.69-.85,3.65-.34,5.77-.48,1.74-.19-.87-.33.86-.52-2.19.26-4.28-.08-6.5.32-.7-.13-.28-.28-1.06-.41C519,297,517.37,297.16,516.32,297.16Z"/><path class="cls-9" d="M578.11,297c1.94.39,4.15-.46,6.07,0,.42-.14-.58-.28-1-.43C581.37,297.14,579.86,296.52,578.11,297Z"/><path class="cls-9" d="M618.07,296.65c-.05.32,4.77.41,4.91.16A47,47,0,0,1,618.07,296.65Z"/><path class="cls-9" d="M655.62,298.89c.61-.22.52-.45.91-.67a11.9,11.9,0,0,0-3.08.13,6.23,6.23,0,0,0,2.28,0C656.39,298.57,653.26,298.53,655.62,298.89Z"/><path class="cls-9" d="M802.09,302c-.33.44,2.72.26,3.7.54.41,0,.24-.1,0-.17l-.71-.21A13.25,13.25,0,0,1,802.09,302Z"/><path class="cls-9" d="M928.84,340.7c2.11.24,4.27.28,6.35.61,1-.42,3.74,0,5.7.22.26-.07.05-.17.45-.22-.37-.09-.17-.13,0-.17C937.16,341.16,933.08,340.64,928.84,340.7Z"/><path class="cls-9" d="M1023.58,315c2.06,0-.33-.49,1.73-.49a10.16,10.16,0,0,1-1.1-.21l-.81.08C1025.33,314.77,1021.66,314.55,1023.58,315Z"/><path class="cls-9" d="M1040.43,317.3c2,.71-.06-.66,2-.2.78-.22-1.61-.49-2.26-.25C1041,317.08,1041.19,317.24,1040.43,317.3Z"/></g></g></svg>